<svg width="43" height="40" viewBox="0 0 43 40" fill="none" xmlns="http://www.w3.org/2000/svg">
<path d="M42.6147 20.0046C42.6147 17.0291 39.1217 14.2092 33.7663 12.4605C35.0021 6.63767 34.4528 2.00504 32.0326 0.521858C31.4748 0.173953 30.8225 0.00915527 30.1101 0.00915527V2.05081C30.5049 2.05081 30.8225 2.13321 31.0885 2.28885C32.2557 3.00298 32.7621 5.72213 32.3673 9.2195C32.2729 10.0801 32.1184 10.9865 31.9296 11.9112C30.2475 11.4717 28.4108 11.133 26.4798 10.9133C25.3212 9.2195 24.1196 7.68139 22.9095 6.33555C25.7074 3.56146 28.3336 2.04166 30.1187 2.04166V0C27.7586 0 24.6689 1.79446 21.5449 4.9073C18.4209 1.81277 15.3313 0.0366218 12.9711 0.0366218V2.07828C14.7477 2.07828 17.3824 3.58892 20.1803 6.3447C18.9788 7.69055 17.7772 9.2195 16.6358 10.9133C14.6962 11.133 12.8595 11.4717 11.1774 11.9203C10.98 11.0048 10.8341 10.1167 10.7311 9.26528C10.3277 5.76791 10.8255 3.04875 11.9841 2.32547C12.2416 2.16068 12.5763 2.08743 12.9711 2.08743V0.0457771C12.2502 0.0457771 11.5979 0.210574 11.0315 0.55848C8.61981 2.04166 8.07912 6.66514 9.32357 12.4697C3.98532 14.2275 0.509445 17.0382 0.509445 20.0046C0.509445 22.9801 4.00248 25.8 9.3579 27.5486C8.12204 33.3715 8.67131 38.0041 11.0915 39.4873C11.6494 39.8352 12.3017 40 13.0226 40C15.3827 40 18.4724 38.2055 21.5964 35.0927C24.7204 38.1872 27.8101 39.9634 30.1702 39.9634C30.8911 39.9634 31.5434 39.7986 32.1098 39.4507C34.5215 37.9675 35.0622 33.344 33.8177 27.5395C39.1388 25.7908 42.6147 22.9709 42.6147 20.0046ZM31.4404 13.8979C31.1229 15.079 30.7281 16.2966 30.2818 17.5143C29.9299 16.7819 29.5609 16.0494 29.1575 15.317C28.7627 14.5846 28.3422 13.8705 27.9216 13.1746C29.1403 13.3669 30.3161 13.6049 31.4404 13.8979ZM27.5097 23.6484C26.8403 24.8844 26.1537 26.0563 25.4413 27.1458C24.1625 27.2648 22.8666 27.3289 21.5621 27.3289C20.2661 27.3289 18.9702 27.2648 17.7 27.155C16.9877 26.0655 16.2925 24.9027 15.6231 23.6759C14.9708 22.4765 14.3786 21.2589 13.8379 20.032C14.37 18.8052 14.9708 17.5784 15.6145 16.379C16.2839 15.1431 16.9705 13.9712 17.6828 12.8817C18.9616 12.7626 20.2576 12.6986 21.5621 12.6986C22.858 12.6986 24.154 12.7626 25.4242 12.8725C26.1365 13.962 26.8317 15.1247 27.5011 16.3516C28.1534 17.5509 28.7455 18.7686 29.2862 19.9954C28.7455 21.2222 28.1534 22.4491 27.5097 23.6484ZM30.2818 22.4582C30.7452 23.6851 31.14 24.9119 31.4662 26.1021C30.3419 26.3951 29.1575 26.6423 27.9302 26.8345C28.3508 26.1295 28.7713 25.4063 29.1661 24.6647C29.5609 23.9322 29.9299 23.1907 30.2818 22.4582ZM21.5792 32.2271C20.7811 31.3481 19.9829 30.3685 19.1933 29.2973C19.9657 29.3339 20.7553 29.3614 21.5535 29.3614C22.3602 29.3614 23.1584 29.3431 23.9394 29.2973C23.167 30.3685 22.3688 31.3481 21.5792 32.2271ZM15.1939 26.8345C13.9752 26.6423 12.7994 26.4042 11.6751 26.1112C11.9927 24.9302 12.3875 23.7125 12.8338 22.4949C13.1857 23.2273 13.5547 23.9597 13.9581 24.6922C14.3614 25.4246 14.7734 26.1387 15.1939 26.8345ZM21.5363 7.7821C22.3345 8.66102 23.1327 9.64065 23.9222 10.7118C23.1498 10.6752 22.3602 10.6477 21.5621 10.6477C20.7553 10.6477 19.9572 10.6661 19.1762 10.7118C19.9486 9.64065 20.7467 8.66102 21.5363 7.7821ZM15.1854 13.1746C14.7648 13.8796 14.3443 14.6029 13.9495 15.3445C13.5547 16.0769 13.1857 16.8093 12.8338 17.5418C12.3703 16.3149 11.9755 15.0881 11.6494 13.8979C12.7737 13.6141 13.9581 13.3669 15.1854 13.1746ZM7.41828 24.6372C4.38011 23.2547 2.41474 21.442 2.41474 20.0046C2.41474 18.5672 4.38011 16.7452 7.41828 15.3719C8.15637 15.0332 8.96311 14.7311 9.7956 14.4472C10.2848 16.2417 10.9285 18.1094 11.7266 20.0229C10.9371 21.9272 10.302 23.7858 9.82135 25.5711C8.97169 25.2872 8.16495 24.976 7.41828 24.6372ZM12.0356 37.7203C10.8684 37.0062 10.362 34.287 10.7568 30.7897C10.8512 29.929 11.0057 29.0227 11.1945 28.098C12.8767 28.5374 14.7133 28.8762 16.6444 29.0959C17.803 30.7897 19.0045 32.3278 20.2146 33.6736C17.4168 36.4477 14.7906 37.9675 13.0054 37.9675C12.6192 37.9583 12.2931 37.8759 12.0356 37.7203ZM32.3931 30.7439C32.7964 34.2412 32.2987 36.9604 31.14 37.6837C30.8826 37.8485 30.5478 37.9217 30.1531 37.9217C28.3765 37.9217 25.7417 36.4111 22.9438 33.6553C24.1454 32.3095 25.3469 30.7805 26.4884 29.0867C28.428 28.867 30.2646 28.5283 31.9468 28.0797C32.1442 29.0043 32.2987 29.8924 32.3931 30.7439ZM35.6973 24.6372C34.9592 24.976 34.1525 25.2781 33.32 25.5619C32.8308 23.7675 32.1871 21.8997 31.3889 19.9863C32.1785 18.0819 32.8136 16.2234 33.2942 14.4381C34.1439 14.7219 34.9506 15.0332 35.7059 15.3719C38.744 16.7544 40.7094 18.5672 40.7094 20.0046C40.7008 21.442 38.7355 23.2639 35.6973 24.6372Z" fill="#8970EF"/>
<path d="M21.5535 24.9791C23.7196 24.9791 25.4756 23.2231 25.4756 21.0569C25.4756 18.8908 23.7196 17.1348 21.5535 17.1348C19.3873 17.1348 17.6313 18.8908 17.6313 21.0569C17.6313 23.2231 19.3873 24.9791 21.5535 24.9791Z" fill="#8970EF"/>
</svg>
