<svg width="316" height="382" viewBox="0 0 316 382" fill="none" xmlns="http://www.w3.org/2000/svg">
<g clip-path="url(#clip0_33_2)">
<path d="M2.25911 182.478C3.4202 184.418 4.99234 186.08 6.86478 187.347C8.73722 188.614 10.8644 189.455 13.0965 189.81C15.3287 190.165 17.6114 190.025 19.784 189.402C21.9566 188.779 23.9662 187.686 25.6712 186.201L73.3285 213.556L71.5524 185.04L26.5685 163.435C23.8863 160.733 20.3071 159.111 16.5093 158.874C12.7114 158.637 8.9587 159.803 5.96225 162.15C2.9658 164.497 0.933797 167.863 0.251285 171.61C-0.431227 175.356 0.283172 179.223 2.25911 182.478Z" fill="#FFB8B8"/>
<path d="M140.232 292.061C126.095 311.863 126.601 344.992 130.545 381.25H197.384L200.29 374.464L204.164 381.25H267.129C267.129 381.25 262.285 289.153 253.567 286.244C244.849 283.336 140.232 292.061 140.232 292.061Z" fill="#2F2E41"/>
<path d="M197.384 85.1728C216.108 85.1728 231.288 69.9815 231.288 51.2421C231.288 32.5026 216.108 17.3113 197.384 17.3113C178.659 17.3113 163.48 32.5026 163.48 51.2421C163.48 69.9815 178.659 85.1728 197.384 85.1728Z" fill="#FFB8B8"/>
<path d="M221.888 93.9763L228.518 106.694L274.376 127.153L262.322 243.899L257.249 255.989L259.99 266.488L253.381 274.236C260.015 280.243 260.857 286.532 257.249 293.036L236.131 297.878C236.131 297.878 118.712 308.327 128.607 290.122C139.42 270.231 142.173 211.485 118.304 180.093C98.0393 153.442 113.597 118.859 113.597 118.859L161.665 104.482L179.345 93.9763L221.888 93.9763Z" fill="#3F3D56"/>
<path d="M212.436 1.53892C212.595 1.20156 212.851 0.919555 213.172 0.729127C213.493 0.538699 213.863 0.448539 214.235 0.470229C198.713 -0.458978 182.364 1.35157 169.378 9.91193C166.232 11.9858 163.266 14.4595 159.843 15.964C159.681 16.0366 159.541 16.1499 159.436 16.2927C159.332 16.4355 159.265 16.6031 159.244 16.7791C159.223 16.9551 159.248 17.1336 159.316 17.2972C159.384 17.4608 159.493 17.6041 159.633 17.7129L160.009 18.008C160.158 18.1244 160.271 18.2794 160.338 18.4559C160.404 18.6324 160.421 18.8239 160.387 19.0093C160.352 19.1948 160.267 19.3672 160.141 19.5078C160.016 19.6485 159.854 19.7519 159.674 19.8069C159.486 19.8643 159.318 19.9742 159.19 20.1238C159.063 20.2733 158.98 20.4562 158.953 20.651C158.926 20.8458 158.955 21.0443 159.037 21.2232C159.118 21.402 159.25 21.5537 159.415 21.6605L162.296 23.5243C162.441 23.6165 162.561 23.7438 162.644 23.8943C162.727 24.0448 162.771 24.2139 162.772 24.3859C162.773 24.558 162.731 24.7275 162.649 24.8789C162.568 25.0304 162.45 25.1589 162.306 25.2527C162.061 25.4036 161.805 25.5336 161.539 25.6415C161.374 25.7037 161.227 25.8075 161.114 25.9429C161 26.0782 160.923 26.2406 160.89 26.4144C160.857 26.5882 160.87 26.7675 160.927 26.935C160.983 27.1026 161.082 27.2527 161.213 27.3709C162.461 28.4826 163.418 29.8829 164.001 31.4497C164.962 33.9489 165.134 36.6707 165.296 39.3434C166.289 35.487 170.494 33.217 174.467 32.9863C178.439 32.7556 182.313 34.0674 186.179 35.0103C194.6 37.0581 203.345 37.3948 211.897 36.0004C208.993 41.8333 211.443 48.7907 213.908 54.8226L221.888 51.3995C232.848 45.2083 225.214 71.3983 221.116 74.9937C229.482 77.8964 251.379 45.6801 244.335 33.4596C240.67 27.1028 243.271 18.9039 236.067 12.8749C232.537 9.15515 225.488 10.8084 221.888 7.71689C220.471 6.50011 222.631 3.24478 220.684 2.53533C220.037 2.2997 212.543 1.30143 212.436 1.53892Z" fill="#2F2E41"/>
<path d="M155.007 107.767C148.786 135.408 132.83 199.948 116.641 213.445C115.615 214.416 114.384 215.143 113.039 215.574C56.1365 229.448 37.9039 194.059 37.9039 194.059C37.9039 194.059 53.153 186.622 53.5398 172.085L84.2922 181.635L111.1 121.258L115.045 117.576L115.067 117.554L155.007 107.767Z" fill="#3F3D56"/>
<path d="M276.333 363.024C277.962 361.457 279.228 359.551 280.042 357.44C280.856 355.33 281.197 353.067 281.043 350.81C280.888 348.554 280.24 346.358 279.146 344.379C278.052 342.4 276.538 340.685 274.709 339.355L290.661 286.741L263.291 294.867L252.339 343.585C250.31 346.806 249.532 350.661 250.153 354.418C250.774 358.175 252.751 361.574 255.708 363.97C258.666 366.366 262.399 367.594 266.2 367.419C270.001 367.245 273.607 365.681 276.333 363.024Z" fill="#FFB8B8"/>
<path d="M261.733 124.209L274.376 127.153C274.376 127.153 326.634 228.91 314.042 248.299C301.449 267.688 286.021 331.88 286.021 331.88C286.021 331.88 263.204 327.34 254.486 315.707L270.451 239.574L253.983 175.59L261.733 124.209Z" fill="#3F3D56"/>
<path d="M21.8679 275.316L22.3219 111.43C22.3348 108.112 23.662 104.936 26.0121 102.597C28.3623 100.258 31.5435 98.9475 34.858 98.9529L158.53 99.296C161.845 99.309 165.019 100.637 167.356 102.989C169.693 105.341 171.002 108.525 170.997 111.842L170.543 275.729C170.53 279.046 169.203 282.222 166.853 284.561C164.503 286.9 161.321 288.211 158.007 288.205L34.3346 287.862C31.0202 287.849 27.8463 286.521 25.5091 284.169C23.172 281.817 21.8625 278.633 21.8679 275.316Z" fill="#E6E6E6"/>
<path d="M31.4915 225.842L31.7834 120.481C31.7954 117.374 33.0383 114.399 35.2393 112.209C37.4403 110.018 40.4197 108.791 43.5237 108.796L149.81 109.091C152.914 109.103 155.886 110.347 158.075 112.549C160.264 114.752 161.491 117.734 161.486 120.841L161.082 266.677C161.07 269.784 159.827 272.759 157.626 274.949C155.424 277.14 152.445 278.367 149.341 278.362L83.4989 278.179C69.6722 278.125 56.4315 272.585 46.6816 262.773C36.9317 252.961 31.4688 239.68 31.4915 225.842Z" fill="white"/>
<path d="M137.631 155.077H54.7553C53.4365 155.077 52.1717 154.552 51.2392 153.619C50.3066 152.686 49.7827 151.42 49.7827 150.1C49.7827 148.78 50.3066 147.514 51.2392 146.581C52.1717 145.648 53.4365 145.124 54.7553 145.124H137.631C138.95 145.124 140.215 145.648 141.147 146.581C142.08 147.514 142.604 148.78 142.604 150.1C142.604 151.42 142.08 152.686 141.147 153.619C140.215 154.552 138.95 155.077 137.631 155.077Z" fill="#6C63FF"/>
<path d="M72.988 132.13H54.7553C53.4365 132.13 52.1717 131.605 51.2392 130.672C50.3066 129.739 49.7827 128.473 49.7827 127.153C49.7827 125.833 50.3066 124.567 51.2392 123.634C52.1717 122.701 53.4365 122.177 54.7553 122.177H72.988C74.3068 122.177 75.5716 122.701 76.5041 123.634C77.4366 124.567 77.9605 125.833 77.9605 127.153C77.9605 128.473 77.4366 129.739 76.5041 130.672C75.5716 131.605 74.3068 132.13 72.988 132.13Z" fill="#6C63FF"/>
<path d="M137.631 178.024H54.7553C53.4365 178.024 52.1717 177.5 51.2392 176.566C50.3066 175.633 49.7827 174.367 49.7827 173.047C49.7827 171.727 50.3066 170.462 51.2392 169.528C52.1717 168.595 53.4365 168.071 54.7553 168.071H137.631C138.95 168.071 140.215 168.595 141.147 169.528C142.08 170.462 142.604 171.727 142.604 173.047C142.604 174.367 142.08 175.633 141.147 176.566C140.215 177.5 138.95 178.024 137.631 178.024Z" fill="#6C63FF"/>
<path d="M137.631 200.971H54.7553C53.4365 200.971 52.1717 200.447 51.2392 199.514C50.3066 198.58 49.7827 197.314 49.7827 195.995C49.7827 194.675 50.3066 193.409 51.2392 192.476C52.1717 191.542 53.4365 191.018 54.7553 191.018H137.631C138.95 191.018 140.215 191.542 141.147 192.476C142.08 193.409 142.604 194.675 142.604 195.995C142.604 197.314 142.08 198.58 141.147 199.514C140.215 200.447 138.95 200.971 137.631 200.971Z" fill="#6C63FF"/>
<path d="M130.925 261.436C141.853 261.436 150.711 252.571 150.711 241.635C150.711 230.698 141.853 221.833 130.925 221.833C119.998 221.833 111.14 230.698 111.14 241.635C111.14 252.571 119.998 261.436 130.925 261.436Z" fill="#6C63FF"/>
<path d="M128.226 251.94C127.884 251.94 127.547 251.861 127.242 251.708C126.936 251.555 126.67 251.332 126.466 251.059L121.068 243.856C120.894 243.625 120.767 243.361 120.695 243.081C120.623 242.8 120.607 242.509 120.648 242.222C120.689 241.935 120.785 241.66 120.933 241.411C121.08 241.161 121.275 240.944 121.506 240.77C121.738 240.596 122.001 240.47 122.281 240.398C122.562 240.327 122.853 240.311 123.139 240.352C123.426 240.393 123.701 240.49 123.95 240.638C124.199 240.786 124.416 240.981 124.589 241.213L128.121 245.925L137.191 232.309C137.351 232.067 137.557 231.86 137.797 231.698C138.037 231.536 138.307 231.423 138.591 231.366C138.875 231.309 139.167 231.308 139.451 231.364C139.735 231.42 140.006 231.532 140.247 231.692C140.488 231.853 140.695 232.06 140.855 232.301C141.016 232.542 141.128 232.812 141.185 233.097C141.241 233.381 141.241 233.674 141.184 233.958C141.127 234.242 141.015 234.512 140.853 234.753L130.058 250.959C129.862 251.252 129.6 251.494 129.292 251.665C128.984 251.835 128.639 251.93 128.287 251.939C128.267 251.94 128.247 251.94 128.226 251.94Z" fill="white"/>
<path d="M88.7344 60.7996C93.9218 60.7996 98.127 56.5911 98.127 51.3996C98.127 46.2081 93.9218 41.9995 88.7344 41.9995C83.547 41.9995 79.3418 46.2081 79.3418 51.3996C79.3418 56.5911 83.547 60.7996 88.7344 60.7996Z" fill="#F2F2F2"/>
<path d="M54.479 331.19C59.6664 331.19 63.8716 326.981 63.8716 321.789C63.8716 316.598 59.6664 312.389 54.479 312.389C49.2917 312.389 45.0865 316.598 45.0865 321.789C45.0865 326.981 49.2917 331.19 54.479 331.19Z" fill="#F2F2F2"/>
<path d="M270.509 97.294C275.696 97.294 279.901 93.0855 279.901 87.894C279.901 82.7024 275.696 78.4939 270.509 78.4939C265.321 78.4939 261.116 82.7024 261.116 87.894C261.116 93.0855 265.321 97.294 270.509 97.294Z" fill="#F2F2F2"/>
</g>
<defs>
<clipPath id="clip0_33_2">
<rect width="316" height="381" fill="white" transform="translate(0 0.250488)"/>
</clipPath>
</defs>
</svg>
