<svg width="33" height="33" viewBox="0 0 33 33" fill="none" xmlns="http://www.w3.org/2000/svg">
<path d="M27.0325 20.1023C26.97 19.8773 27.1075 19.5648 27.2387 19.3398C27.2789 19.2729 27.3227 19.2082 27.37 19.1461C28.4927 17.4779 29.0932 15.5131 29.095 13.5023C29.1137 7.73984 24.2512 3.06484 18.2387 3.06484C12.995 3.06484 8.61999 6.63359 7.59499 11.3711C7.44165 12.0733 7.36412 12.7899 7.36374 13.5086C7.36374 19.2773 12.0387 24.0773 18.0512 24.0773C19.0075 24.0773 20.295 23.7898 21.0012 23.5961C21.7075 23.4023 22.4075 23.1461 22.5887 23.0773C22.7745 23.0073 22.9714 22.9713 23.17 22.9711C23.3866 22.9703 23.6013 23.0128 23.8012 23.0961L27.345 24.3523C27.4227 24.3852 27.5048 24.4063 27.5887 24.4148C27.7213 24.4148 27.8485 24.3622 27.9423 24.2684C28.0361 24.1746 28.0887 24.0475 28.0887 23.9148C28.0844 23.8576 28.0739 23.8011 28.0575 23.7461L27.0325 20.1023Z" stroke="#0A0324" stroke-width="1.14121" stroke-miterlimit="10" stroke-linecap="round"/>
<path d="M4.24873 14.5648C3.429 16.0375 3.03245 17.7081 3.10294 19.3921C3.17342 21.076 3.70818 22.7077 4.6481 24.1067C4.79248 24.3248 4.87373 24.4936 4.84873 24.6067C4.82373 24.7198 4.1031 28.4736 4.1031 28.4736C4.08577 28.5614 4.09235 28.6523 4.12214 28.7368C4.15193 28.8212 4.20385 28.8961 4.27248 28.9536C4.36405 29.0266 4.4779 29.0658 4.59498 29.0648C4.65754 29.065 4.71946 29.0522 4.77685 29.0273L8.28998 27.6523C8.53177 27.557 8.8015 27.5615 9.03998 27.6648C10.2237 28.1261 11.5325 28.4148 12.8419 28.4148C14.5989 28.4167 16.3251 27.9533 17.845 27.0717" stroke="#0A0324" stroke-width="1.14121" stroke-miterlimit="10" stroke-linecap="round"/>
</svg>
