<svg width="64" height="64" viewBox="0 0 64 64" fill="none" xmlns="http://www.w3.org/2000/svg">
<path d="M53.7637 43.4875C52.9387 42.725 51.7262 42.5375 50.6887 42.3625C49.2512 42.125 48.7012 41.8625 47.8637 41.1125C46.0762 39.525 46.0762 37.225 47.8637 35.6375L51.6512 32.275C57.4512 27.15 57.4512 18.75 51.6512 13.625C47.3762 9.8625 41.6387 8 35.6762 8C28.7137 8 21.4387 10.5375 15.8262 15.5125C5.38873 24.7375 5.38873 39.85 15.8262 49.075C21.0137 53.6625 28.0137 55.95 34.9387 56H35.1512C42.0762 56 48.9012 53.7625 53.7512 49.45C55.5512 47.8625 55.25 44.875 53.7637 43.4875Z" stroke="url(#paint0_linear_12_2)" stroke-width="4" stroke-miterlimit="10"/>
<path d="M18 30C20.2091 30 22 28.2091 22 26C22 23.7909 20.2091 22 18 22C15.7909 22 14 23.7909 14 26C14 28.2091 15.7909 30 18 30Z" fill="url(#paint1_linear_12_2)"/>
<path d="M19 42.875C21.2091 42.875 23 41.0841 23 38.875C23 36.6659 21.2091 34.875 19 34.875C16.7909 34.875 15 36.6659 15 38.875C15 41.0841 16.7909 42.875 19 42.875Z" fill="url(#paint2_linear_12_2)"/>
<path d="M28 22C30.2091 22 32 20.2091 32 18C32 15.7909 30.2091 14 28 14C25.7909 14 24 15.7909 24 18C24 20.2091 25.7909 22 28 22Z" fill="url(#paint3_linear_12_2)"/>
<path d="M32 51.875C35.3137 51.875 38 49.1887 38 45.875C38 42.5613 35.3137 39.875 32 39.875C28.6863 39.875 26 42.5613 26 45.875C26 49.1887 28.6863 51.875 32 51.875Z" fill="url(#paint4_linear_12_2)"/>
<path d="M41 22C43.2091 22 45 20.2091 45 18C45 15.7909 43.2091 14 41 14C38.7909 14 37 15.7909 37 18C37 20.2091 38.7909 22 41 22Z" fill="url(#paint5_linear_12_2)"/>
<defs>
<linearGradient id="paint0_linear_12_2" x1="7.99811" y1="56" x2="55.9985" y2="14.2644" gradientUnits="userSpaceOnUse">
<stop stop-color="#DED6FF"/>
<stop offset="1" stop-color="#9074FF"/>
</linearGradient>
<linearGradient id="paint1_linear_12_2" x1="14" y1="30" x2="22" y2="23.0446" gradientUnits="userSpaceOnUse">
<stop stop-color="#DED6FF"/>
<stop offset="1" stop-color="#9074FF"/>
</linearGradient>
<linearGradient id="paint2_linear_12_2" x1="15" y1="42.875" x2="23" y2="35.9196" gradientUnits="userSpaceOnUse">
<stop stop-color="#DED6FF"/>
<stop offset="1" stop-color="#9074FF"/>
</linearGradient>
<linearGradient id="paint3_linear_12_2" x1="24" y1="22" x2="32" y2="15.0446" gradientUnits="userSpaceOnUse">
<stop stop-color="#DED6FF"/>
<stop offset="1" stop-color="#9074FF"/>
</linearGradient>
<linearGradient id="paint4_linear_12_2" x1="26" y1="51.875" x2="38" y2="41.4419" gradientUnits="userSpaceOnUse">
<stop stop-color="#DED6FF"/>
<stop offset="1" stop-color="#9074FF"/>
</linearGradient>
<linearGradient id="paint5_linear_12_2" x1="37" y1="22" x2="45" y2="15.0446" gradientUnits="userSpaceOnUse">
<stop stop-color="#DED6FF"/>
<stop offset="1" stop-color="#9074FF"/>
</linearGradient>
</defs>
</svg>
