<svg width="745" height="532" viewBox="0 0 745 532" fill="none" xmlns="http://www.w3.org/2000/svg">
<path d="M296.36 20.0778C296.843 19.6938 297.064 19.5161 297.021 19.5445C298.415 18.3927 299.509 17.4471 300.306 16.7076C301.116 15.9682 301.799 15.1932 302.353 14.3827C302.908 13.5721 303.185 12.7829 303.185 12.015C303.185 11.432 303.05 10.977 302.78 10.6499C302.51 10.3229 302.105 10.1593 301.564 10.1593C301.024 10.1593 300.597 10.3655 300.284 10.7779C299.986 11.1761 299.837 11.7449 299.837 12.4843H296.317C296.346 11.2756 296.602 10.266 297.085 9.45545C297.583 8.64491 298.23 8.04767 299.026 7.66373C299.837 7.27979 300.732 7.08782 301.714 7.08782C303.406 7.08782 304.678 7.52153 305.532 8.38895C306.399 9.25637 306.833 10.3869 306.833 11.7804C306.833 13.302 306.314 14.7168 305.276 16.0251C304.238 17.3191 302.915 18.5847 301.308 19.8218H307.067V22.7867H296.36V20.0778ZM308.673 15.0012C308.673 12.5554 309.143 10.6286 310.081 9.22082C311.034 7.81304 312.563 7.10915 314.667 7.10915C316.772 7.10915 318.293 7.81304 319.232 9.22082C320.184 10.6286 320.661 12.5554 320.661 15.0012C320.661 17.4755 320.184 19.4166 319.232 20.8243C318.293 22.2321 316.772 22.936 314.667 22.936C312.563 22.936 311.034 22.2321 310.081 20.8243C309.143 19.4166 308.673 17.4755 308.673 15.0012ZM317.077 15.0012C317.077 13.565 316.921 12.463 316.608 11.6951C316.295 10.913 315.648 10.5219 314.667 10.5219C313.686 10.5219 313.039 10.913 312.726 11.6951C312.413 12.463 312.257 13.565 312.257 15.0012C312.257 15.9682 312.314 16.7716 312.427 17.4115C312.541 18.0372 312.769 18.5491 313.11 18.9473C313.465 19.3312 313.985 19.5232 314.667 19.5232C315.35 19.5232 315.862 19.3312 316.203 18.9473C316.558 18.5491 316.793 18.0372 316.907 17.4115C317.02 16.7716 317.077 15.9682 317.077 15.0012ZM322.588 15.0012C322.588 12.5554 323.057 10.6286 323.996 9.22082C324.948 7.81304 326.477 7.10915 328.582 7.10915C330.686 7.10915 332.208 7.81304 333.146 9.22082C334.099 10.6286 334.575 12.5554 334.575 15.0012C334.575 17.4755 334.099 19.4166 333.146 20.8243C332.208 22.2321 330.686 22.936 328.582 22.936C326.477 22.936 324.948 22.2321 323.996 20.8243C323.057 19.4166 322.588 17.4755 322.588 15.0012ZM330.992 15.0012C330.992 13.565 330.835 12.463 330.523 11.6951C330.21 10.913 329.563 10.5219 328.582 10.5219C327.6 10.5219 326.953 10.913 326.641 11.6951C326.328 12.463 326.171 13.565 326.171 15.0012C326.171 15.9682 326.228 16.7716 326.342 17.4115C326.456 18.0372 326.683 18.5491 327.024 18.9473C327.38 19.3312 327.899 19.5232 328.582 19.5232C329.264 19.5232 329.776 19.3312 330.117 18.9473C330.473 18.5491 330.707 18.0372 330.821 17.4115C330.935 16.7716 330.992 15.9682 330.992 15.0012ZM336.63 11.8231C336.687 10.3015 337.185 9.12839 338.123 8.30363C339.062 7.47887 340.335 7.06649 341.941 7.06649C343.008 7.06649 343.918 7.25135 344.672 7.62107C345.44 7.99079 346.016 8.4956 346.399 9.1355C346.798 9.7754 346.997 10.4935 346.997 11.2898C346.997 12.2283 346.762 12.9962 346.293 13.5935C345.824 14.1765 345.276 14.5746 344.65 14.7879V14.8733C345.461 15.1434 346.101 15.5914 346.57 16.2171C347.039 16.8427 347.274 17.6462 347.274 18.6273C347.274 19.509 347.068 20.2911 346.655 20.9736C346.257 21.642 345.667 22.1681 344.885 22.5521C344.117 22.936 343.2 23.128 342.133 23.128C340.427 23.128 339.062 22.7085 338.038 21.8695C337.028 21.0305 336.495 19.7649 336.438 18.0728H339.979C339.993 18.6984 340.171 19.1961 340.512 19.5659C340.854 19.9214 341.351 20.0991 342.005 20.0991C342.56 20.0991 342.987 19.9427 343.285 19.6299C343.598 19.3028 343.755 18.8762 343.755 18.3501C343.755 17.6675 343.534 17.1769 343.093 16.8783C342.667 16.5654 341.977 16.409 341.024 16.409H340.342V13.4442H341.024C341.75 13.4442 342.333 13.3233 342.773 13.0815C343.228 12.8256 343.456 12.3777 343.456 11.7378C343.456 11.2258 343.314 10.8277 343.029 10.5433C342.745 10.2589 342.354 10.1167 341.856 10.1167C341.316 10.1167 340.911 10.2802 340.64 10.6073C340.384 10.9343 340.235 11.3396 340.192 11.8231H336.63Z" fill="url(#paint0_linear_23_136)"/>
<path d="M311.968 506.513C313.362 506.513 314.471 506.968 315.296 507.878C316.135 508.774 316.554 510.011 316.554 511.589V518.543H312.928V512.08C312.928 511.284 312.722 510.665 312.31 510.224C311.897 509.783 311.343 509.563 310.646 509.563C309.949 509.563 309.395 509.783 308.982 510.224C308.57 510.665 308.364 511.284 308.364 512.08V518.543H304.716V506.641H308.364V508.219C308.733 507.693 309.231 507.281 309.857 506.982C310.482 506.669 311.186 506.513 311.968 506.513ZM324.507 518.714C323.341 518.714 322.288 518.465 321.35 517.967C320.426 517.469 319.693 516.758 319.153 515.834C318.627 514.91 318.364 513.829 318.364 512.592C318.364 511.369 318.634 510.295 319.174 509.371C319.715 508.433 320.454 507.714 321.393 507.217C322.331 506.719 323.383 506.47 324.549 506.47C325.715 506.47 326.768 506.719 327.706 507.217C328.645 507.714 329.384 508.433 329.925 509.371C330.465 510.295 330.735 511.369 330.735 512.592C330.735 513.815 330.458 514.896 329.903 515.834C329.363 516.758 328.616 517.469 327.664 517.967C326.725 518.465 325.673 518.714 324.507 518.714ZM324.507 515.557C325.203 515.557 325.794 515.301 326.277 514.789C326.775 514.277 327.024 513.545 327.024 512.592C327.024 511.639 326.782 510.907 326.298 510.395C325.829 509.883 325.246 509.627 324.549 509.627C323.838 509.627 323.248 509.883 322.779 510.395C322.31 510.893 322.075 511.625 322.075 512.592C322.075 513.545 322.303 514.277 322.758 514.789C323.227 515.301 323.81 515.557 324.507 515.557ZM349.755 506.641L346.535 518.543H342.503L340.626 510.822L338.685 518.543H334.675L331.433 506.641H335.08L336.765 515.151L338.77 506.641H342.631L344.658 515.109L346.321 506.641H349.755Z" fill="url(#paint1_linear_23_136)"/>
<line x1="328.367" y1="46.0708" x2="328.367" y2="477.564" stroke="url(#paint2_linear_23_136)" stroke-width="5"/>
<line x1="326.991" y1="161.557" x2="362.949" y2="161.557" stroke="url(#paint3_linear_23_136)" stroke-width="5"/>
<path d="M405.674 140.861C405.404 140.364 405.013 139.987 404.501 139.731C404.003 139.461 403.413 139.325 402.73 139.325C401.55 139.325 400.605 139.716 399.894 140.499C399.183 141.266 398.827 142.297 398.827 143.591C398.827 144.971 399.197 146.052 399.936 146.834C400.69 147.601 401.721 147.985 403.029 147.985C403.925 147.985 404.679 147.758 405.29 147.303C405.916 146.848 406.371 146.194 406.655 145.341H402.027V142.653H409.961V146.044C409.691 146.954 409.229 147.801 408.575 148.583C407.935 149.365 407.117 149.998 406.122 150.481C405.127 150.965 404.003 151.206 402.752 151.206C401.273 151.206 399.95 150.886 398.784 150.246C397.633 149.592 396.73 148.689 396.076 147.537C395.436 146.386 395.116 145.07 395.116 143.591C395.116 142.113 395.436 140.797 396.076 139.645C396.73 138.479 397.633 137.576 398.784 136.936C399.936 136.282 401.252 135.955 402.73 135.955C404.522 135.955 406.03 136.389 407.252 137.256C408.49 138.124 409.307 139.325 409.705 140.861H405.674ZM413.688 151.27C413.048 151.27 412.522 151.085 412.11 150.716C411.712 150.332 411.512 149.862 411.512 149.308C411.512 148.739 411.712 148.263 412.11 147.879C412.522 147.495 413.048 147.303 413.688 147.303C414.314 147.303 414.826 147.495 415.224 147.879C415.636 148.263 415.842 148.739 415.842 149.308C415.842 149.862 415.636 150.332 415.224 150.716C414.826 151.085 414.314 151.27 413.688 151.27ZM434.959 136.126V151.1H431.312V142.12L427.963 151.1H425.019L421.649 142.098V151.1H418.002V136.126H422.31L426.512 146.492L430.672 136.126H434.959ZM439.288 151.27C438.648 151.27 438.122 151.085 437.71 150.716C437.312 150.332 437.113 149.862 437.113 149.308C437.113 148.739 437.312 148.263 437.71 147.879C438.122 147.495 438.648 147.303 439.288 147.303C439.914 147.303 440.426 147.495 440.824 147.879C441.236 148.263 441.443 148.739 441.443 149.308C441.443 149.862 441.236 150.332 440.824 150.716C440.426 151.085 439.914 151.27 439.288 151.27ZM447.185 136.126V145.085C447.185 145.98 447.406 146.67 447.846 147.154C448.287 147.637 448.934 147.879 449.787 147.879C450.641 147.879 451.295 147.637 451.75 147.154C452.205 146.67 452.432 145.98 452.432 145.085V136.126H456.08V145.063C456.08 146.4 455.795 147.53 455.227 148.455C454.658 149.379 453.89 150.076 452.923 150.545C451.97 151.014 450.904 151.249 449.723 151.249C448.543 151.249 447.484 151.021 446.545 150.566C445.621 150.097 444.889 149.4 444.348 148.476C443.808 147.537 443.538 146.4 443.538 145.063V136.126H447.185ZM460.347 151.27C459.708 151.27 459.181 151.085 458.769 150.716C458.371 150.332 458.172 149.862 458.172 149.308C458.172 148.739 458.371 148.263 458.769 147.879C459.181 147.495 459.708 147.303 460.347 147.303C460.973 147.303 461.485 147.495 461.883 147.879C462.296 148.263 462.502 148.739 462.502 149.308C462.502 149.862 462.296 150.332 461.883 150.716C461.485 151.085 460.973 151.27 460.347 151.27ZM476.073 140.947C476.073 141.814 475.873 142.61 475.475 143.335C475.077 144.046 474.466 144.622 473.641 145.063C472.816 145.504 471.792 145.724 470.569 145.724H468.308V151.1H464.661V136.126H470.569C471.764 136.126 472.773 136.332 473.598 136.745C474.423 137.157 475.042 137.726 475.454 138.451C475.866 139.176 476.073 140.008 476.073 140.947ZM470.292 142.824C470.989 142.824 471.508 142.66 471.849 142.333C472.19 142.006 472.361 141.544 472.361 140.947C472.361 140.349 472.19 139.887 471.849 139.56C471.508 139.233 470.989 139.069 470.292 139.069H468.308V142.824H470.292ZM487.909 151.249C486.814 151.249 485.833 151.071 484.966 150.716C484.098 150.36 483.402 149.834 482.875 149.137C482.364 148.44 482.093 147.601 482.065 146.62H485.947C486.004 147.175 486.196 147.601 486.523 147.9C486.85 148.185 487.277 148.327 487.803 148.327C488.343 148.327 488.77 148.206 489.082 147.964C489.395 147.708 489.552 147.36 489.552 146.919C489.552 146.549 489.424 146.243 489.168 146.002C488.926 145.76 488.62 145.561 488.251 145.404C487.895 145.248 487.383 145.07 486.715 144.871C485.748 144.573 484.959 144.274 484.347 143.975C483.736 143.677 483.21 143.236 482.769 142.653C482.328 142.07 482.108 141.309 482.108 140.371C482.108 138.977 482.612 137.889 483.622 137.107C484.632 136.311 485.947 135.913 487.568 135.913C489.218 135.913 490.547 136.311 491.557 137.107C492.566 137.889 493.107 138.984 493.178 140.392H489.232C489.203 139.908 489.026 139.532 488.699 139.261C488.371 138.977 487.952 138.835 487.44 138.835C486.999 138.835 486.644 138.956 486.374 139.197C486.103 139.425 485.968 139.759 485.968 140.2C485.968 140.683 486.196 141.06 486.651 141.33C487.106 141.601 487.817 141.892 488.784 142.205C489.751 142.532 490.533 142.845 491.13 143.144C491.742 143.442 492.268 143.876 492.709 144.445C493.149 145.013 493.37 145.746 493.37 146.642C493.37 147.495 493.149 148.27 492.709 148.967C492.282 149.663 491.656 150.218 490.832 150.63C490.007 151.043 489.033 151.249 487.909 151.249ZM494.889 145.149C494.889 143.911 495.138 142.831 495.636 141.906C496.148 140.982 496.852 140.271 497.747 139.773C498.658 139.276 499.696 139.027 500.862 139.027C502.355 139.027 503.599 139.418 504.594 140.2C505.604 140.982 506.265 142.084 506.578 143.506H502.696C502.369 142.596 501.736 142.141 500.798 142.141C500.129 142.141 499.596 142.404 499.198 142.93C498.8 143.442 498.601 144.182 498.601 145.149C498.601 146.115 498.8 146.862 499.198 147.388C499.596 147.9 500.129 148.156 500.798 148.156C501.736 148.156 502.369 147.701 502.696 146.791H506.578C506.265 148.185 505.604 149.279 504.594 150.076C503.585 150.872 502.341 151.27 500.862 151.27C499.696 151.27 498.658 151.021 497.747 150.524C496.852 150.026 496.148 149.315 495.636 148.391C495.138 147.466 494.889 146.386 494.889 145.149ZM515.845 139.069C517.21 139.069 518.305 139.525 519.13 140.435C519.955 141.33 520.367 142.568 520.367 144.146V151.1H516.741V144.637C516.741 143.84 516.535 143.222 516.123 142.781C515.71 142.34 515.156 142.12 514.459 142.12C513.762 142.12 513.207 142.34 512.795 142.781C512.383 143.222 512.177 143.84 512.177 144.637V151.1H508.529V135.315H512.177V140.797C512.546 140.271 513.051 139.852 513.691 139.539C514.331 139.226 515.049 139.069 515.845 139.069ZM528.32 151.27C527.154 151.27 526.101 151.021 525.163 150.524C524.239 150.026 523.506 149.315 522.966 148.391C522.44 147.466 522.177 146.386 522.177 145.149C522.177 143.926 522.447 142.852 522.987 141.928C523.528 140.989 524.267 140.271 525.205 139.773C526.144 139.276 527.196 139.027 528.362 139.027C529.528 139.027 530.581 139.276 531.519 139.773C532.458 140.271 533.197 140.989 533.737 141.928C534.278 142.852 534.548 143.926 534.548 145.149C534.548 146.371 534.271 147.452 533.716 148.391C533.176 149.315 532.429 150.026 531.477 150.524C530.538 151.021 529.486 151.27 528.32 151.27ZM528.32 148.113C529.016 148.113 529.607 147.857 530.09 147.346C530.588 146.834 530.837 146.101 530.837 145.149C530.837 144.196 530.595 143.463 530.111 142.952C529.642 142.44 529.059 142.184 528.362 142.184C527.651 142.184 527.061 142.44 526.592 142.952C526.123 143.449 525.888 144.182 525.888 145.149C525.888 146.101 526.116 146.834 526.571 147.346C527.04 147.857 527.623 148.113 528.32 148.113ZM541.901 151.27C540.735 151.27 539.683 151.021 538.744 150.524C537.82 150.026 537.087 149.315 536.547 148.391C536.021 147.466 535.758 146.386 535.758 145.149C535.758 143.926 536.028 142.852 536.568 141.928C537.109 140.989 537.848 140.271 538.787 139.773C539.725 139.276 540.778 139.027 541.944 139.027C543.11 139.027 544.162 139.276 545.1 139.773C546.039 140.271 546.778 140.989 547.319 141.928C547.859 142.852 548.129 143.926 548.129 145.149C548.129 146.371 547.852 147.452 547.297 148.391C546.757 149.315 546.01 150.026 545.058 150.524C544.119 151.021 543.067 151.27 541.901 151.27ZM541.901 148.113C542.598 148.113 543.188 147.857 543.671 147.346C544.169 146.834 544.418 146.101 544.418 145.149C544.418 144.196 544.176 143.463 543.693 142.952C543.223 142.44 542.64 142.184 541.944 142.184C541.233 142.184 540.642 142.44 540.173 142.952C539.704 143.449 539.469 144.182 539.469 145.149C539.469 146.101 539.697 146.834 540.152 147.346C540.621 147.857 541.204 148.113 541.901 148.113ZM553.712 135.315V151.1H550.064V135.315H553.712ZM564.8 147.729L562.432 153.851H560.107L561.344 147.729H564.8ZM576.937 151.27C575.771 151.27 574.719 151.021 573.78 150.524C572.856 150.026 572.124 149.315 571.583 148.391C571.057 147.466 570.794 146.386 570.794 145.149C570.794 143.926 571.064 142.852 571.605 141.928C572.145 140.989 572.884 140.271 573.823 139.773C574.761 139.276 575.814 139.027 576.98 139.027C578.146 139.027 579.198 139.276 580.137 139.773C581.075 140.271 581.815 140.989 582.355 141.928C582.895 142.852 583.165 143.926 583.165 145.149C583.165 146.371 582.888 147.452 582.334 148.391C581.793 149.315 581.047 150.026 580.094 150.524C579.155 151.021 578.103 151.27 576.937 151.27ZM576.937 148.113C577.634 148.113 578.224 147.857 578.707 147.346C579.205 146.834 579.454 146.101 579.454 145.149C579.454 144.196 579.212 143.463 578.729 142.952C578.26 142.44 577.677 142.184 576.98 142.184C576.269 142.184 575.679 142.44 575.209 142.952C574.74 143.449 574.505 144.182 574.505 145.149C574.505 146.101 574.733 146.834 575.188 147.346C575.657 147.857 576.24 148.113 576.937 148.113ZM588.513 148.092H593.675V151.1H584.439V148.199L589.388 142.205H584.482V139.197H593.568V142.098L588.513 148.092ZM602.998 139.069C604.363 139.069 605.458 139.525 606.283 140.435C607.108 141.33 607.52 142.568 607.52 144.146V151.1H603.894V144.637C603.894 143.84 603.688 143.222 603.276 142.781C602.863 142.34 602.309 142.12 601.612 142.12C600.915 142.12 600.361 142.34 599.948 142.781C599.536 143.222 599.33 143.84 599.33 144.637V151.1H595.682V135.315H599.33V140.797C599.699 140.271 600.204 139.852 600.844 139.539C601.484 139.226 602.202 139.069 602.998 139.069ZM621.808 139.197V151.1H618.16V149.479C617.791 150.005 617.286 150.431 616.646 150.758C616.02 151.071 615.323 151.228 614.556 151.228C613.645 151.228 612.842 151.029 612.145 150.63C611.448 150.218 610.908 149.628 610.524 148.86C610.14 148.092 609.948 147.189 609.948 146.151V139.197H613.574V145.66C613.574 146.457 613.781 147.075 614.193 147.516C614.605 147.957 615.16 148.177 615.857 148.177C616.568 148.177 617.129 147.957 617.542 147.516C617.954 147.075 618.16 146.457 618.16 145.66V139.197H621.808ZM631.701 151.1L628.075 146.108V151.1H624.428V135.315H628.075V144.039L631.68 139.197H636.18L631.232 145.17L636.223 151.1H631.701ZM649.366 139.197V151.1H645.718V149.479C645.349 150.005 644.844 150.431 644.204 150.758C643.578 151.071 642.882 151.228 642.114 151.228C641.204 151.228 640.4 151.029 639.703 150.63C639.007 150.218 638.466 149.628 638.082 148.86C637.698 148.092 637.506 147.189 637.506 146.151V139.197H641.133V145.66C641.133 146.457 641.339 147.075 641.751 147.516C642.163 147.957 642.718 148.177 643.415 148.177C644.126 148.177 644.688 147.957 645.1 147.516C645.512 147.075 645.718 146.457 645.718 145.66V139.197H649.366ZM655.633 141.181C656.06 140.527 656.593 140.015 657.233 139.645C657.873 139.261 658.584 139.069 659.366 139.069V142.93H658.364C657.453 142.93 656.771 143.129 656.316 143.527C655.861 143.911 655.633 144.594 655.633 145.575V151.1H651.986V139.197H655.633V141.181Z" fill="#DED6FF"/>
<path d="M503.89 185.033C502.866 184.031 502.066 182.756 501.49 181.209C500.925 179.663 500.642 177.993 500.642 176.201C500.642 174.367 500.941 172.655 501.538 171.065C502.146 169.465 503.01 168.148 504.13 167.113H505.65V167.257C504.455 168.377 503.554 169.727 502.946 171.305C502.349 172.873 502.05 174.505 502.05 176.201C502.05 177.855 502.333 179.433 502.898 180.937C503.474 182.441 504.311 183.759 505.41 184.889V185.033H503.89ZM511.437 176.153C511.437 174.319 511.736 172.889 512.333 171.865C512.931 170.831 513.976 170.313 515.469 170.313C516.952 170.313 517.992 170.831 518.589 171.865C519.187 172.889 519.485 174.319 519.485 176.153C519.485 178.02 519.187 179.471 518.589 180.505C517.992 181.54 516.952 182.057 515.469 182.057C513.976 182.057 512.931 181.54 512.333 180.505C511.736 179.471 511.437 178.02 511.437 176.153ZM518.045 176.153C518.045 175.225 517.981 174.441 517.853 173.801C517.736 173.151 517.485 172.628 517.101 172.233C516.728 171.839 516.184 171.641 515.469 171.641C514.744 171.641 514.189 171.839 513.805 172.233C513.432 172.628 513.181 173.151 513.053 173.801C512.936 174.441 512.877 175.225 512.877 176.153C512.877 177.113 512.936 177.919 513.053 178.569C513.181 179.22 513.432 179.743 513.805 180.137C514.189 180.532 514.744 180.729 515.469 180.729C516.184 180.729 516.728 180.532 517.101 180.137C517.485 179.743 517.736 179.22 517.853 178.569C517.981 177.919 518.045 177.113 518.045 176.153ZM527.804 175.577V176.809H521.42V175.577H527.804ZM537.417 171.625L532.969 182.057H531.497L536.009 171.769H529.833V170.521H537.417V171.625ZM546.641 182.201C545.969 182.201 545.366 182.089 544.833 181.865C544.299 181.631 543.878 181.311 543.569 180.905C543.259 180.489 543.089 180.015 543.057 179.481H544.561C544.603 179.919 544.806 180.276 545.169 180.553C545.542 180.831 546.027 180.969 546.625 180.969C547.179 180.969 547.617 180.847 547.937 180.601C548.257 180.356 548.417 180.047 548.417 179.673C548.417 179.289 548.246 179.007 547.905 178.825C547.563 178.633 547.035 178.447 546.321 178.265C545.67 178.095 545.137 177.924 544.721 177.753C544.315 177.572 543.963 177.311 543.665 176.969C543.377 176.617 543.233 176.159 543.233 175.593C543.233 175.145 543.366 174.735 543.633 174.361C543.899 173.988 544.278 173.695 544.769 173.481C545.259 173.257 545.819 173.145 546.449 173.145C547.419 173.145 548.203 173.391 548.801 173.881C549.398 174.372 549.718 175.044 549.761 175.897H548.305C548.273 175.439 548.086 175.071 547.745 174.793C547.414 174.516 546.966 174.377 546.401 174.377C545.878 174.377 545.462 174.489 545.153 174.713C544.843 174.937 544.689 175.231 544.689 175.593C544.689 175.881 544.779 176.121 544.961 176.313C545.153 176.495 545.387 176.644 545.665 176.761C545.953 176.868 546.347 176.991 546.849 177.129C547.478 177.3 547.99 177.471 548.385 177.641C548.779 177.801 549.115 178.047 549.393 178.377C549.681 178.708 549.83 179.14 549.841 179.673C549.841 180.153 549.707 180.585 549.441 180.969C549.174 181.353 548.795 181.657 548.305 181.881C547.825 182.095 547.27 182.201 546.641 182.201ZM553.672 174.489V179.657C553.672 180.084 553.763 180.388 553.944 180.569C554.125 180.74 554.44 180.825 554.888 180.825H555.96V182.057H554.648C553.837 182.057 553.229 181.871 552.824 181.497C552.419 181.124 552.216 180.511 552.216 179.657V174.489H551.08V173.289H552.216V171.081H553.672V173.289H555.96V174.489H553.672ZM557.18 177.641C557.18 176.745 557.361 175.961 557.724 175.289C558.087 174.607 558.583 174.079 559.212 173.705C559.852 173.332 560.567 173.145 561.356 173.145C562.039 173.145 562.673 173.305 563.26 173.625C563.847 173.935 564.295 174.345 564.604 174.857V170.217H566.076V182.057H564.604V180.409C564.316 180.932 563.889 181.364 563.324 181.705C562.759 182.036 562.097 182.201 561.34 182.201C560.561 182.201 559.852 182.009 559.212 181.625C558.583 181.241 558.087 180.703 557.724 180.009C557.361 179.316 557.18 178.527 557.18 177.641ZM564.604 177.657C564.604 176.996 564.471 176.42 564.204 175.929C563.937 175.439 563.575 175.065 563.116 174.809C562.668 174.543 562.172 174.409 561.628 174.409C561.084 174.409 560.588 174.537 560.14 174.793C559.692 175.049 559.335 175.423 559.068 175.913C558.801 176.404 558.668 176.98 558.668 177.641C558.668 178.313 558.801 178.9 559.068 179.401C559.335 179.892 559.692 180.271 560.14 180.537C560.588 180.793 561.084 180.921 561.628 180.921C562.172 180.921 562.668 180.793 563.116 180.537C563.575 180.271 563.937 179.892 564.204 179.401C564.471 178.9 564.604 178.319 564.604 177.657ZM572.338 185.033V184.889C573.437 183.759 574.269 182.441 574.834 180.937C575.41 179.433 575.698 177.855 575.698 176.201C575.698 174.505 575.394 172.873 574.786 171.305C574.189 169.727 573.293 168.377 572.098 167.257V167.113H573.618C574.738 168.148 575.597 169.465 576.194 171.065C576.802 172.655 577.106 174.367 577.106 176.201C577.106 177.993 576.818 179.663 576.242 181.209C575.677 182.756 574.882 184.031 573.858 185.033H572.338Z" fill="white"/>
<line x1="291.033" y1="278.42" x2="326.991" y2="278.42" stroke="url(#paint4_linear_23_136)" stroke-width="5"/>
<path d="M0.70389 270.567C0.70389 269.088 1.02384 267.773 1.66374 266.621C2.30364 265.455 3.19239 264.552 4.32999 263.912C5.48181 263.258 6.78294 262.931 8.23338 262.931C10.0109 262.931 11.5324 263.4 12.798 264.339C14.0636 265.277 14.9097 266.557 15.3363 268.178H11.3262C11.0276 267.553 10.601 267.076 10.0464 266.749C9.50607 266.422 8.8875 266.259 8.19072 266.259C7.06734 266.259 6.15726 266.65 5.46048 267.432C4.7637 268.214 4.41531 269.259 4.41531 270.567C4.41531 271.876 4.7637 272.921 5.46048 273.703C6.15726 274.485 7.06734 274.876 8.19072 274.876C8.8875 274.876 9.50607 274.712 10.0464 274.385C10.601 274.058 11.0276 273.582 11.3262 272.956H15.3363C14.9097 274.577 14.0636 275.857 12.798 276.796C11.5324 277.72 10.0109 278.182 8.23338 278.182C6.78294 278.182 5.48181 277.862 4.32999 277.222C3.19239 276.568 2.30364 275.665 1.66374 274.513C1.02384 273.362 0.70389 272.046 0.70389 270.567ZM21.2174 268.157C21.644 267.503 22.1772 266.991 22.8171 266.621C23.457 266.237 24.168 266.045 24.9501 266.045V269.906H23.9476C23.0375 269.906 22.355 270.105 21.8999 270.503C21.4449 270.887 21.2174 271.57 21.2174 272.551V278.075H17.5699V266.173H21.2174V268.157ZM37.9131 271.932C37.9131 272.274 37.8917 272.629 37.8491 272.999H29.5944C29.6513 273.738 29.8859 274.307 30.2983 274.705C30.7249 275.089 31.2439 275.281 31.8554 275.281C32.7654 275.281 33.3982 274.897 33.7537 274.129H37.6358C37.4367 274.911 37.0741 275.615 36.548 276.241C36.036 276.867 35.389 277.357 34.6069 277.713C33.8248 278.068 32.9503 278.246 31.9833 278.246C30.8173 278.246 29.7792 277.997 28.8692 277.5C27.9591 277.002 27.2481 276.291 26.7362 275.367C26.2242 274.442 25.9683 273.362 25.9683 272.124C25.9683 270.887 26.2171 269.807 26.7148 268.882C27.2267 267.958 27.9377 267.247 28.8478 266.749C29.7579 266.252 30.8031 266.003 31.9833 266.003C33.1352 266.003 34.159 266.244 35.0549 266.728C35.9507 267.211 36.6475 267.901 37.1452 268.797C37.6571 269.693 37.9131 270.738 37.9131 271.932ZM34.1803 270.973C34.1803 270.347 33.967 269.849 33.5404 269.479C33.1138 269.11 32.5806 268.925 31.9407 268.925C31.3292 268.925 30.8102 269.103 30.3836 269.458C29.9712 269.814 29.7152 270.318 29.6157 270.973H34.1803ZM44.6792 278.246C43.6411 278.246 42.7168 278.068 41.9063 277.713C41.0957 277.357 40.4558 276.874 39.9866 276.262C39.5173 275.637 39.2543 274.94 39.1974 274.172H42.8021C42.8448 274.584 43.0368 274.919 43.3781 275.175C43.7193 275.431 44.1388 275.558 44.6365 275.558C45.0916 275.558 45.44 275.473 45.6817 275.303C45.9377 275.118 46.0656 274.883 46.0656 274.599C46.0656 274.257 45.8879 274.009 45.5324 273.852C45.1769 273.681 44.601 273.497 43.8047 273.298C42.9515 273.098 42.2405 272.892 41.6717 272.679C41.1029 272.451 40.6123 272.103 40.1999 271.634C39.7875 271.15 39.5813 270.503 39.5813 269.693C39.5813 269.01 39.7662 268.392 40.1359 267.837C40.5198 267.268 41.0744 266.82 41.7996 266.493C42.5391 266.166 43.4136 266.003 44.4232 266.003C45.9163 266.003 47.0895 266.372 47.9427 267.112C48.8101 267.851 49.3078 268.832 49.4358 270.055H46.0656C46.0088 269.643 45.8239 269.316 45.5111 269.074C45.2124 268.832 44.8143 268.712 44.3166 268.712C43.89 268.712 43.5629 268.797 43.3354 268.968C43.1079 269.124 42.9941 269.344 42.9941 269.629C42.9941 269.97 43.1719 270.226 43.5274 270.397C43.8971 270.567 44.4659 270.738 45.2338 270.909C46.1154 271.136 46.8335 271.364 47.3881 271.591C47.9427 271.804 48.4262 272.16 48.8385 272.658C49.2651 273.141 49.4855 273.795 49.4998 274.62C49.4998 275.317 49.3007 275.942 48.9025 276.497C48.5186 277.037 47.9569 277.464 47.2175 277.777C46.4922 278.09 45.6461 278.246 44.6792 278.246ZM51.006 272.124C51.006 270.887 51.2549 269.807 51.7526 268.882C52.2645 267.958 52.9684 267.247 53.8643 266.749C54.7743 266.252 55.8124 266.003 56.9784 266.003C58.4715 266.003 59.7158 266.394 60.7112 267.176C61.7208 267.958 62.382 269.06 62.6949 270.482H58.8128C58.4858 269.572 57.853 269.117 56.9144 269.117C56.2461 269.117 55.7129 269.38 55.3147 269.906C54.9165 270.418 54.7175 271.157 54.7175 272.124C54.7175 273.091 54.9165 273.838 55.3147 274.364C55.7129 274.876 56.2461 275.132 56.9144 275.132C57.853 275.132 58.4858 274.677 58.8128 273.767H62.6949C62.382 275.16 61.7208 276.255 60.7112 277.052C59.7016 277.848 58.4573 278.246 56.9784 278.246C55.8124 278.246 54.7743 277.997 53.8643 277.5C52.9684 277.002 52.2645 276.291 51.7526 275.367C51.2549 274.442 51.006 273.362 51.006 272.124ZM75.8655 271.932C75.8655 272.274 75.8441 272.629 75.8015 272.999H67.5468C67.6037 273.738 67.8383 274.307 68.2507 274.705C68.6773 275.089 69.1963 275.281 69.8078 275.281C70.7178 275.281 71.3506 274.897 71.7061 274.129H75.5882C75.3891 274.911 75.0265 275.615 74.5004 276.241C73.9884 276.867 73.3414 277.357 72.5593 277.713C71.7772 278.068 70.9027 278.246 69.9357 278.246C68.7697 278.246 67.7316 277.997 66.8216 277.5C65.9115 277.002 65.2005 276.291 64.6886 275.367C64.1766 274.442 63.9207 273.362 63.9207 272.124C63.9207 270.887 64.1695 269.807 64.6672 268.882C65.1791 267.958 65.8901 267.247 66.8002 266.749C67.7103 266.252 68.7555 266.003 69.9357 266.003C71.0876 266.003 72.1114 266.244 73.0073 266.728C73.9031 267.211 74.5999 267.901 75.0976 268.797C75.6095 269.693 75.8655 270.738 75.8655 271.932ZM72.1327 270.973C72.1327 270.347 71.9194 269.849 71.4928 269.479C71.0662 269.11 70.533 268.925 69.8931 268.925C69.2816 268.925 68.7626 269.103 68.336 269.458C67.9236 269.814 67.6676 270.318 67.5681 270.973H72.1327ZM85.0419 266.045C86.4354 266.045 87.5446 266.5 88.3694 267.41C89.2083 268.306 89.6278 269.543 89.6278 271.122V278.075H86.0017V271.612C86.0017 270.816 85.7955 270.198 85.3832 269.757C84.9708 269.316 84.4162 269.096 83.7194 269.096C83.0226 269.096 82.4681 269.316 82.0557 269.757C81.6433 270.198 81.4371 270.816 81.4371 271.612V278.075H77.7897V266.173H81.4371V267.752C81.8068 267.226 82.3045 266.813 82.9302 266.515C83.5559 266.202 84.2598 266.045 85.0419 266.045ZM98.7961 274.983V278.075H96.9403C95.6179 278.075 94.5869 277.755 93.8475 277.116C93.1081 276.461 92.7383 275.402 92.7383 273.937V269.202H91.2879V266.173H92.7383V263.272H96.3858V266.173H98.7747V269.202H96.3858V273.98C96.3858 274.336 96.4711 274.592 96.6417 274.748C96.8124 274.904 97.0968 274.983 97.4949 274.983H98.7961ZM118.317 263.102V278.075H114.669V271.911H108.995V278.075H105.348V263.102H108.995V268.968H114.669V263.102H118.317ZM125.792 278.246C124.753 278.246 123.829 278.068 123.019 277.713C122.208 277.357 121.568 276.874 121.099 276.262C120.63 275.637 120.367 274.94 120.31 274.172H123.914C123.957 274.584 124.149 274.919 124.49 275.175C124.832 275.431 125.251 275.558 125.749 275.558C126.204 275.558 126.552 275.473 126.794 275.303C127.05 275.118 127.178 274.883 127.178 274.599C127.178 274.257 127 274.009 126.645 273.852C126.289 273.681 125.713 273.497 124.917 273.298C124.064 273.098 123.353 272.892 122.784 272.679C122.215 272.451 121.725 272.103 121.312 271.634C120.9 271.15 120.694 270.503 120.694 269.693C120.694 269.01 120.878 268.392 121.248 267.837C121.632 267.268 122.187 266.82 122.912 266.493C123.651 266.166 124.526 266.003 125.536 266.003C127.029 266.003 128.202 266.372 129.055 267.112C129.922 267.851 130.42 268.832 130.548 270.055H127.178C127.121 269.643 126.936 269.316 126.623 269.074C126.325 268.832 125.927 268.712 125.429 268.712C125.002 268.712 124.675 268.797 124.448 268.968C124.22 269.124 124.106 269.344 124.106 269.629C124.106 269.97 124.284 270.226 124.64 270.397C125.009 270.567 125.578 270.738 126.346 270.909C127.228 271.136 127.946 271.364 128.5 271.591C129.055 271.804 129.538 272.16 129.951 272.658C130.377 273.141 130.598 273.795 130.612 274.62C130.612 275.317 130.413 275.942 130.015 276.497C129.631 277.037 129.069 277.464 128.33 277.777C127.605 278.09 126.758 278.246 125.792 278.246ZM137.685 278.246C136.647 278.246 135.723 278.068 134.913 277.713C134.102 277.357 133.462 276.874 132.993 276.262C132.524 275.637 132.261 274.94 132.204 274.172H135.808C135.851 274.584 136.043 274.919 136.384 275.175C136.726 275.431 137.145 275.558 137.643 275.558C138.098 275.558 138.446 275.473 138.688 275.303C138.944 275.118 139.072 274.883 139.072 274.599C139.072 274.257 138.894 274.009 138.539 273.852C138.183 273.681 137.607 273.497 136.811 273.298C135.958 273.098 135.247 272.892 134.678 272.679C134.109 272.451 133.619 272.103 133.206 271.634C132.794 271.15 132.588 270.503 132.588 269.693C132.588 269.01 132.772 268.392 133.142 267.837C133.526 267.268 134.081 266.82 134.806 266.493C135.545 266.166 136.42 266.003 137.43 266.003C138.923 266.003 140.096 266.372 140.949 267.112C141.816 267.851 142.314 268.832 142.442 270.055H139.072C139.015 269.643 138.83 269.316 138.517 269.074C138.219 268.832 137.821 268.712 137.323 268.712C136.896 268.712 136.569 268.797 136.342 268.968C136.114 269.124 136 269.344 136 269.629C136 269.97 136.178 270.226 136.534 270.397C136.903 270.567 137.472 270.738 138.24 270.909C139.122 271.136 139.84 271.364 140.394 271.591C140.949 271.804 141.432 272.16 141.845 272.658C142.271 273.141 142.492 273.795 142.506 274.62C142.506 275.317 142.307 275.942 141.909 276.497C141.525 277.037 140.963 277.464 140.224 277.777C139.499 278.09 138.652 278.246 137.685 278.246ZM148.662 274.705L146.295 280.827H143.97L145.207 274.705H148.662ZM160.8 278.246C159.633 278.246 158.581 277.997 157.643 277.5C156.718 277.002 155.986 276.291 155.446 275.367C154.92 274.442 154.656 273.362 154.656 272.124C154.656 270.901 154.927 269.828 155.467 268.904C156.007 267.965 156.747 267.247 157.685 266.749C158.624 266.252 159.676 266.003 160.842 266.003C162.008 266.003 163.061 266.252 163.999 266.749C164.938 267.247 165.677 267.965 166.217 268.904C166.758 269.828 167.028 270.901 167.028 272.124C167.028 273.347 166.751 274.428 166.196 275.367C165.656 276.291 164.909 277.002 163.956 277.5C163.018 277.997 161.966 278.246 160.8 278.246ZM160.8 275.089C161.496 275.089 162.086 274.833 162.57 274.321C163.068 273.809 163.316 273.077 163.316 272.124C163.316 271.172 163.075 270.439 162.591 269.927C162.122 269.415 161.539 269.159 160.842 269.159C160.131 269.159 159.541 269.415 159.072 269.927C158.603 270.425 158.368 271.157 158.368 272.124C158.368 273.077 158.595 273.809 159.05 274.321C159.52 274.833 160.103 275.089 160.8 275.089ZM172.376 275.068H177.538V278.075H168.302V275.175L173.25 269.181H168.344V266.173H177.431V269.074L172.376 275.068ZM186.861 266.045C188.226 266.045 189.321 266.5 190.146 267.41C190.97 268.306 191.383 269.543 191.383 271.122V278.075H187.757V271.612C187.757 270.816 187.55 270.198 187.138 269.757C186.726 269.316 186.171 269.096 185.474 269.096C184.778 269.096 184.223 269.316 183.811 269.757C183.398 270.198 183.192 270.816 183.192 271.612V278.075H179.545V262.291H183.192V267.773C183.562 267.247 184.067 266.827 184.706 266.515C185.346 266.202 186.064 266.045 186.861 266.045ZM205.67 266.173V278.075H202.023V276.454C201.653 276.98 201.148 277.407 200.508 277.734C199.883 278.047 199.186 278.203 198.418 278.203C197.508 278.203 196.704 278.004 196.008 277.606C195.311 277.194 194.771 276.604 194.387 275.836C194.003 275.068 193.811 274.165 193.811 273.127V266.173H197.437V272.636C197.437 273.433 197.643 274.051 198.055 274.492C198.468 274.933 199.022 275.153 199.719 275.153C200.43 275.153 200.992 274.933 201.404 274.492C201.817 274.051 202.023 273.433 202.023 272.636V266.173H205.67ZM215.564 278.075L211.938 273.084V278.075H208.29V262.291H211.938V271.015L215.542 266.173H220.043L215.094 272.146L220.086 278.075H215.564ZM233.228 266.173V278.075H229.581V276.454C229.211 276.98 228.706 277.407 228.067 277.734C227.441 278.047 226.744 278.203 225.976 278.203C225.066 278.203 224.263 278.004 223.566 277.606C222.869 277.194 222.329 276.604 221.945 275.836C221.561 275.068 221.369 274.165 221.369 273.127V266.173H224.995V272.636C224.995 273.433 225.201 274.051 225.614 274.492C226.026 274.933 226.581 275.153 227.277 275.153C227.988 275.153 228.55 274.933 228.962 274.492C229.375 274.051 229.581 273.433 229.581 272.636V266.173H233.228ZM239.496 268.157C239.922 267.503 240.456 266.991 241.095 266.621C241.735 266.237 242.446 266.045 243.228 266.045V269.906H242.226C241.316 269.906 240.633 270.105 240.178 270.503C239.723 270.887 239.496 271.57 239.496 272.551V278.075H235.848V266.173H239.496V268.157Z" fill="#DED6FF"/>
<path d="M60.0363 312.009C59.0123 311.007 58.2123 309.732 57.6363 308.185C57.071 306.639 56.7883 304.969 56.7883 303.177C56.7883 301.343 57.087 299.631 57.6843 298.041C58.2923 296.441 59.1563 295.124 60.2763 294.089H61.7963V294.233C60.6017 295.353 59.7003 296.703 59.0923 298.281C58.495 299.849 58.1963 301.481 58.1963 303.177C58.1963 304.831 58.479 306.409 59.0443 307.913C59.6203 309.417 60.4577 310.735 61.5563 311.865V312.009H60.0363ZM67.094 309.145C66.358 309.145 65.6966 309.017 65.11 308.761C64.534 308.495 64.0806 308.132 63.75 307.673C63.4193 307.204 63.2486 306.665 63.238 306.057H64.79C64.8433 306.58 65.0566 307.023 65.43 307.385C65.814 307.737 66.3686 307.913 67.094 307.913C67.7873 307.913 68.3313 307.743 68.726 307.401C69.1313 307.049 69.334 306.601 69.334 306.057C69.334 305.631 69.2166 305.284 68.982 305.017C68.7473 304.751 68.454 304.548 68.102 304.409C67.75 304.271 67.2753 304.121 66.678 303.961C65.942 303.769 65.35 303.577 64.902 303.385C64.4646 303.193 64.086 302.895 63.766 302.489C63.4566 302.073 63.302 301.519 63.302 300.825C63.302 300.217 63.4566 299.679 63.766 299.209C64.0753 298.74 64.5073 298.377 65.062 298.121C65.6273 297.865 66.2726 297.737 66.998 297.737C68.0433 297.737 68.8966 297.999 69.558 298.521C70.23 299.044 70.6086 299.737 70.694 300.601H69.094C69.0406 300.175 68.8166 299.801 68.422 299.481C68.0273 299.151 67.5046 298.985 66.854 298.985C66.246 298.985 65.75 299.145 65.366 299.465C64.982 299.775 64.79 300.212 64.79 300.777C64.79 301.183 64.902 301.513 65.126 301.769C65.3606 302.025 65.6433 302.223 65.974 302.361C66.3153 302.489 66.79 302.639 67.398 302.809C68.134 303.012 68.726 303.215 69.174 303.417C69.622 303.609 70.006 303.913 70.326 304.329C70.646 304.735 70.806 305.289 70.806 305.993C70.806 306.537 70.662 307.049 70.374 307.529C70.086 308.009 69.6593 308.399 69.094 308.697C68.5286 308.996 67.862 309.145 67.094 309.145ZM76.4846 309.145C75.7486 309.145 75.0873 309.017 74.5006 308.761C73.9246 308.495 73.4712 308.132 73.1406 307.673C72.8099 307.204 72.6392 306.665 72.6286 306.057H74.1806C74.2339 306.58 74.4473 307.023 74.8206 307.385C75.2046 307.737 75.7593 307.913 76.4846 307.913C77.1779 307.913 77.7219 307.743 78.1166 307.401C78.5219 307.049 78.7246 306.601 78.7246 306.057C78.7246 305.631 78.6073 305.284 78.3726 305.017C78.1379 304.751 77.8446 304.548 77.4926 304.409C77.1406 304.271 76.6659 304.121 76.0686 303.961C75.3326 303.769 74.7406 303.577 74.2926 303.385C73.8553 303.193 73.4766 302.895 73.1566 302.489C72.8472 302.073 72.6926 301.519 72.6926 300.825C72.6926 300.217 72.8472 299.679 73.1566 299.209C73.4659 298.74 73.8979 298.377 74.4526 298.121C75.0179 297.865 75.6633 297.737 76.3886 297.737C77.4339 297.737 78.2873 297.999 78.9486 298.521C79.6206 299.044 79.9993 299.737 80.0846 300.601H78.4846C78.4313 300.175 78.2073 299.801 77.8126 299.481C77.4179 299.151 76.8953 298.985 76.2446 298.985C75.6366 298.985 75.1406 299.145 74.7566 299.465C74.3726 299.775 74.1806 300.212 74.1806 300.777C74.1806 301.183 74.2926 301.513 74.5166 301.769C74.7513 302.025 75.0339 302.223 75.3646 302.361C75.7059 302.489 76.1806 302.639 76.7886 302.809C77.5246 303.012 78.1166 303.215 78.5646 303.417C79.0126 303.609 79.3966 303.913 79.7166 304.329C80.0366 304.735 80.1966 305.289 80.1966 305.993C80.1966 306.537 80.0526 307.049 79.7646 307.529C79.4766 308.009 79.0499 308.399 78.4846 308.697C77.9193 308.996 77.2526 309.145 76.4846 309.145ZM83.7952 307.849H87.6992V309.033H82.3392V297.881H83.7952V307.849ZM88.7015 303.449C88.7015 302.361 88.9468 301.385 89.4375 300.521C89.9281 299.647 90.5948 298.964 91.4375 298.473C92.2908 297.983 93.2348 297.737 94.2695 297.737C95.4855 297.737 96.5468 298.031 97.4535 298.617C98.3601 299.204 99.0215 300.036 99.4375 301.113H97.6935C97.3841 300.441 96.9361 299.924 96.3495 299.561C95.7735 299.199 95.0801 299.017 94.2695 299.017C93.4908 299.017 92.7921 299.199 92.1735 299.561C91.5548 299.924 91.0695 300.441 90.7175 301.113C90.3655 301.775 90.1895 302.553 90.1895 303.449C90.1895 304.335 90.3655 305.113 90.7175 305.785C91.0695 306.447 91.5548 306.959 92.1735 307.321C92.7921 307.684 93.4908 307.865 94.2695 307.865C95.0801 307.865 95.7735 307.689 96.3495 307.337C96.9361 306.975 97.3841 306.457 97.6935 305.785H99.4375C99.0215 306.852 98.3601 307.679 97.4535 308.265C96.5468 308.841 95.4855 309.129 94.2695 309.129C93.2348 309.129 92.2908 308.889 91.4375 308.409C90.5948 307.919 89.9281 307.241 89.4375 306.377C88.9468 305.513 88.7015 304.537 88.7015 303.449ZM107.374 307.017L105.582 311.321H104.606L105.774 307.017H107.374ZM120.764 301.145C120.764 302.073 120.444 302.847 119.804 303.465C119.175 304.073 118.209 304.377 116.908 304.377H114.764V309.033H113.308V297.881H116.908C118.167 297.881 119.121 298.185 119.772 298.793C120.433 299.401 120.764 300.185 120.764 301.145ZM116.908 303.177C117.719 303.177 118.316 303.001 118.7 302.649C119.084 302.297 119.276 301.796 119.276 301.145C119.276 299.769 118.487 299.081 116.908 299.081H114.764V303.177H116.908ZM124.03 307.849H127.934V309.033H122.574V297.881H124.03V307.849ZM130.904 297.881V304.937C130.904 305.929 131.144 306.665 131.624 307.145C132.114 307.625 132.792 307.865 133.656 307.865C134.509 307.865 135.176 307.625 135.656 307.145C136.147 306.665 136.392 305.929 136.392 304.937V297.881H137.848V304.921C137.848 305.849 137.661 306.633 137.288 307.273C136.915 307.903 136.408 308.372 135.768 308.681C135.139 308.991 134.429 309.145 133.64 309.145C132.851 309.145 132.136 308.991 131.496 308.681C130.867 308.372 130.365 307.903 129.992 307.273C129.629 306.633 129.448 305.849 129.448 304.921V297.881H130.904ZM143.813 309.145C143.077 309.145 142.415 309.017 141.829 308.761C141.253 308.495 140.799 308.132 140.469 307.673C140.138 307.204 139.967 306.665 139.957 306.057H141.509C141.562 306.58 141.775 307.023 142.149 307.385C142.533 307.737 143.087 307.913 143.813 307.913C144.506 307.913 145.05 307.743 145.445 307.401C145.85 307.049 146.053 306.601 146.053 306.057C146.053 305.631 145.935 305.284 145.701 305.017C145.466 304.751 145.173 304.548 144.821 304.409C144.469 304.271 143.994 304.121 143.397 303.961C142.661 303.769 142.069 303.577 141.621 303.385C141.183 303.193 140.805 302.895 140.485 302.489C140.175 302.073 140.021 301.519 140.021 300.825C140.021 300.217 140.175 299.679 140.485 299.209C140.794 298.74 141.226 298.377 141.781 298.121C142.346 297.865 142.991 297.737 143.717 297.737C144.762 297.737 145.615 297.999 146.277 298.521C146.949 299.044 147.327 299.737 147.413 300.601H145.813C145.759 300.175 145.535 299.801 145.141 299.481C144.746 299.151 144.223 298.985 143.573 298.985C142.965 298.985 142.469 299.145 142.085 299.465C141.701 299.775 141.509 300.212 141.509 300.777C141.509 301.183 141.621 301.513 141.845 301.769C142.079 302.025 142.362 302.223 142.693 302.361C143.034 302.489 143.509 302.639 144.117 302.809C144.853 303.012 145.445 303.215 145.893 303.417C146.341 303.609 146.725 303.913 147.045 304.329C147.365 304.735 147.525 305.289 147.525 305.993C147.525 306.537 147.381 307.049 147.093 307.529C146.805 308.009 146.378 308.399 145.813 308.697C145.247 308.996 144.581 309.145 143.813 309.145ZM160.797 297.881V299.065H157.757V309.033H156.301V299.065H153.245V297.881H160.797ZM176.605 297.881L173.373 309.033H171.741L169.149 300.057L166.461 309.033L164.845 309.049L161.725 297.881H163.277L165.709 307.337L168.397 297.881H170.029L172.589 307.305L175.037 297.881H176.605ZM183.255 309.145C182.22 309.145 181.276 308.905 180.423 308.425C179.569 307.935 178.892 307.257 178.391 306.393C177.9 305.519 177.655 304.537 177.655 303.449C177.655 302.361 177.9 301.385 178.391 300.521C178.892 299.647 179.569 298.969 180.423 298.489C181.276 297.999 182.22 297.753 183.255 297.753C184.3 297.753 185.249 297.999 186.103 298.489C186.956 298.969 187.628 299.641 188.119 300.505C188.609 301.369 188.855 302.351 188.855 303.449C188.855 304.548 188.609 305.529 188.119 306.393C187.628 307.257 186.956 307.935 186.103 308.425C185.249 308.905 184.3 309.145 183.255 309.145ZM183.255 307.881C184.033 307.881 184.732 307.7 185.351 307.337C185.98 306.975 186.471 306.457 186.823 305.785C187.185 305.113 187.367 304.335 187.367 303.449C187.367 302.553 187.185 301.775 186.823 301.113C186.471 300.441 185.985 299.924 185.367 299.561C184.748 299.199 184.044 299.017 183.255 299.017C182.465 299.017 181.761 299.199 181.143 299.561C180.524 299.924 180.033 300.441 179.671 301.113C179.319 301.775 179.143 302.553 179.143 303.449C179.143 304.335 179.319 305.113 179.671 305.785C180.033 306.457 180.524 306.975 181.143 307.337C181.772 307.7 182.476 307.881 183.255 307.881ZM194.578 312.009V311.865C195.677 310.735 196.509 309.417 197.074 307.913C197.65 306.409 197.938 304.831 197.938 303.177C197.938 301.481 197.634 299.849 197.026 298.281C196.429 296.703 195.533 295.353 194.338 294.233V294.089H195.858C196.978 295.124 197.837 296.441 198.434 298.041C199.042 299.631 199.346 301.343 199.346 303.177C199.346 304.969 199.058 306.639 198.482 308.185C197.917 309.732 197.122 311.007 196.098 312.009H194.578Z" fill="white"/>
<line x1="325.867" y1="384.046" x2="361.825" y2="384.046" stroke="url(#paint5_linear_23_136)" stroke-width="5"/>
<path d="M394.41 391.716C393.315 391.716 392.334 391.539 391.466 391.183C390.599 390.828 389.902 390.302 389.376 389.605C388.864 388.908 388.594 388.069 388.566 387.088H392.448C392.504 387.642 392.696 388.069 393.024 388.368C393.351 388.652 393.777 388.794 394.303 388.794C394.844 388.794 395.27 388.673 395.583 388.432C395.896 388.176 396.052 387.827 396.052 387.386C396.052 387.017 395.924 386.711 395.668 386.469C395.427 386.228 395.121 386.028 394.751 385.872C394.396 385.716 393.884 385.538 393.215 385.339C392.249 385.04 391.459 384.742 390.848 384.443C390.236 384.144 389.71 383.703 389.269 383.12C388.829 382.537 388.608 381.777 388.608 380.838C388.608 379.445 389.113 378.357 390.123 377.575C391.132 376.778 392.448 376.38 394.069 376.38C395.718 376.38 397.048 376.778 398.057 377.575C399.067 378.357 399.607 379.452 399.678 380.859H395.732C395.704 380.376 395.526 379.999 395.199 379.729C394.872 379.445 394.453 379.302 393.941 379.302C393.5 379.302 393.144 379.423 392.874 379.665C392.604 379.893 392.469 380.227 392.469 380.668C392.469 381.151 392.696 381.528 393.151 381.798C393.607 382.068 394.318 382.36 395.284 382.673C396.251 383 397.034 383.312 397.631 383.611C398.242 383.91 398.768 384.343 399.209 384.912C399.65 385.481 399.87 386.213 399.87 387.109C399.87 387.962 399.65 388.737 399.209 389.434C398.783 390.131 398.157 390.685 397.332 391.098C396.507 391.51 395.533 391.716 394.41 391.716ZM408.749 388.474V391.567H406.893C405.571 391.567 404.54 391.247 403.8 390.607C403.061 389.953 402.691 388.894 402.691 387.429V382.694H401.241V379.665H402.691V376.764H406.338V379.665H408.727V382.694H406.338V387.472C406.338 387.827 406.424 388.083 406.594 388.24C406.765 388.396 407.049 388.474 407.448 388.474H408.749ZM412.487 391.738C411.847 391.738 411.321 391.553 410.908 391.183C410.51 390.799 410.311 390.33 410.311 389.775C410.311 389.207 410.51 388.73 410.908 388.346C411.321 387.962 411.847 387.77 412.487 387.77C413.112 387.77 413.624 387.962 414.023 388.346C414.435 388.73 414.641 389.207 414.641 389.775C414.641 390.33 414.435 390.799 414.023 391.183C413.624 391.553 413.112 391.738 412.487 391.738ZM426.185 376.593V386.789C426.185 388.368 425.738 389.583 424.842 390.437C423.96 391.29 422.766 391.716 421.258 391.716C419.68 391.716 418.414 391.269 417.462 390.373C416.509 389.477 416.032 388.204 416.032 386.555H419.659C419.659 387.18 419.786 387.657 420.042 387.984C420.298 388.297 420.668 388.453 421.152 388.453C421.592 388.453 421.934 388.311 422.175 388.026C422.417 387.742 422.538 387.33 422.538 386.789V376.593H426.185ZM434.55 391.738C433.383 391.738 432.331 391.489 431.393 390.991C430.468 390.494 429.736 389.783 429.196 388.858C428.67 387.934 428.406 386.853 428.406 385.616C428.406 384.393 428.677 383.32 429.217 382.395C429.757 381.457 430.497 380.739 431.435 380.241C432.374 379.743 433.426 379.494 434.592 379.494C435.758 379.494 436.81 379.743 437.749 380.241C438.688 380.739 439.427 381.457 439.967 382.395C440.508 383.32 440.778 384.393 440.778 385.616C440.778 386.839 440.501 387.92 439.946 388.858C439.406 389.783 438.659 390.494 437.706 390.991C436.768 391.489 435.716 391.738 434.55 391.738ZM434.55 388.581C435.246 388.581 435.836 388.325 436.32 387.813C436.818 387.301 437.066 386.569 437.066 385.616C437.066 384.663 436.825 383.931 436.341 383.419C435.872 382.907 435.289 382.651 434.592 382.651C433.881 382.651 433.291 382.907 432.822 383.419C432.353 383.917 432.118 384.649 432.118 385.616C432.118 386.569 432.345 387.301 432.8 387.813C433.27 388.325 433.853 388.581 434.55 388.581ZM447.555 391.738C446.517 391.738 445.592 391.56 444.782 391.205C443.971 390.849 443.331 390.366 442.862 389.754C442.393 389.128 442.13 388.432 442.073 387.664H445.678C445.72 388.076 445.912 388.41 446.254 388.666C446.595 388.922 447.014 389.05 447.512 389.05C447.967 389.05 448.316 388.965 448.557 388.794C448.813 388.609 448.941 388.375 448.941 388.09C448.941 387.749 448.764 387.5 448.408 387.344C448.053 387.173 447.477 386.988 446.68 386.789C445.827 386.59 445.116 386.384 444.547 386.171C443.978 385.943 443.488 385.595 443.076 385.125C442.663 384.642 442.457 383.995 442.457 383.184C442.457 382.502 442.642 381.883 443.012 381.329C443.395 380.76 443.95 380.312 444.675 379.985C445.415 379.658 446.289 379.494 447.299 379.494C448.792 379.494 449.965 379.864 450.818 380.604C451.686 381.343 452.183 382.324 452.311 383.547H448.941C448.884 383.135 448.7 382.808 448.387 382.566C448.088 382.324 447.69 382.203 447.192 382.203C446.766 382.203 446.439 382.289 446.211 382.459C445.984 382.616 445.87 382.836 445.87 383.12C445.87 383.462 446.047 383.718 446.403 383.888C446.773 384.059 447.342 384.23 448.109 384.4C448.991 384.628 449.709 384.855 450.264 385.083C450.818 385.296 451.302 385.652 451.714 386.149C452.141 386.633 452.361 387.287 452.375 388.112C452.375 388.808 452.176 389.434 451.778 389.989C451.394 390.529 450.833 390.956 450.093 391.269C449.368 391.581 448.522 391.738 447.555 391.738ZM465.826 385.424C465.826 385.765 465.805 386.121 465.762 386.491H457.508C457.565 387.23 457.799 387.799 458.212 388.197C458.638 388.581 459.157 388.773 459.769 388.773C460.679 388.773 461.312 388.389 461.667 387.621H465.549C465.35 388.403 464.987 389.107 464.461 389.733C463.949 390.358 463.302 390.849 462.52 391.205C461.738 391.56 460.864 391.738 459.897 391.738C458.731 391.738 457.693 391.489 456.783 390.991C455.872 390.494 455.161 389.783 454.65 388.858C454.138 387.934 453.882 386.853 453.882 385.616C453.882 384.379 454.131 383.298 454.628 382.374C455.14 381.45 455.851 380.739 456.761 380.241C457.671 379.743 458.716 379.494 459.897 379.494C461.049 379.494 462.072 379.736 462.968 380.22C463.864 380.703 464.561 381.393 465.059 382.289C465.571 383.184 465.826 384.23 465.826 385.424ZM462.094 384.464C462.094 383.839 461.88 383.341 461.454 382.971C461.027 382.601 460.494 382.417 459.854 382.417C459.243 382.417 458.724 382.594 458.297 382.95C457.885 383.305 457.629 383.81 457.529 384.464H462.094ZM471.398 381.35C471.754 380.795 472.244 380.348 472.87 380.006C473.496 379.665 474.228 379.494 475.067 379.494C476.048 379.494 476.937 379.743 477.733 380.241C478.529 380.739 479.155 381.45 479.61 382.374C480.079 383.298 480.314 384.372 480.314 385.595C480.314 386.818 480.079 387.898 479.61 388.837C479.155 389.761 478.529 390.479 477.733 390.991C476.937 391.489 476.048 391.738 475.067 391.738C474.242 391.738 473.51 391.567 472.87 391.226C472.244 390.885 471.754 390.444 471.398 389.903V397.241H467.751V379.665H471.398V381.35ZM476.603 385.595C476.603 384.685 476.347 383.974 475.835 383.462C475.337 382.936 474.718 382.673 473.979 382.673C473.254 382.673 472.635 382.936 472.123 383.462C471.626 383.988 471.377 384.706 471.377 385.616C471.377 386.526 471.626 387.244 472.123 387.77C472.635 388.297 473.254 388.56 473.979 388.56C474.704 388.56 475.323 388.297 475.835 387.77C476.347 387.23 476.603 386.505 476.603 385.595ZM489.544 379.537C490.909 379.537 492.004 379.992 492.829 380.902C493.653 381.798 494.066 383.035 494.066 384.614V391.567H490.44V385.104C490.44 384.308 490.233 383.689 489.821 383.248C489.409 382.808 488.854 382.587 488.157 382.587C487.461 382.587 486.906 382.808 486.494 383.248C486.081 383.689 485.875 384.308 485.875 385.104V391.567H482.228V375.783H485.875V381.265C486.245 380.739 486.75 380.319 487.389 380.006C488.029 379.693 488.747 379.537 489.544 379.537ZM497.432 376.593H501.165L498.776 382.31H496.323L497.432 376.593ZM508.15 391.738C507.111 391.738 506.187 391.56 505.377 391.205C504.566 390.849 503.926 390.366 503.457 389.754C502.988 389.128 502.725 388.432 502.668 387.664H506.272C506.315 388.076 506.507 388.41 506.848 388.666C507.19 388.922 507.609 389.05 508.107 389.05C508.562 389.05 508.91 388.965 509.152 388.794C509.408 388.609 509.536 388.375 509.536 388.09C509.536 387.749 509.358 387.5 509.003 387.344C508.647 387.173 508.071 386.988 507.275 386.789C506.422 386.59 505.711 386.384 505.142 386.171C504.573 385.943 504.083 385.595 503.67 385.125C503.258 384.642 503.052 383.995 503.052 383.184C503.052 382.502 503.237 381.883 503.606 381.329C503.99 380.76 504.545 380.312 505.27 379.985C506.009 379.658 506.884 379.494 507.894 379.494C509.387 379.494 510.56 379.864 511.413 380.604C512.28 381.343 512.778 382.324 512.906 383.547H509.536C509.479 383.135 509.294 382.808 508.981 382.566C508.683 382.324 508.285 382.203 507.787 382.203C507.36 382.203 507.033 382.289 506.806 382.459C506.578 382.616 506.464 382.836 506.464 383.12C506.464 383.462 506.642 383.718 506.998 383.888C507.367 384.059 507.936 384.23 508.704 384.4C509.586 384.628 510.304 384.855 510.858 385.083C511.413 385.296 511.896 385.652 512.309 386.149C512.735 386.633 512.956 387.287 512.97 388.112C512.97 388.808 512.771 389.434 512.373 389.989C511.989 390.529 511.427 390.956 510.688 391.269C509.963 391.581 509.116 391.738 508.15 391.738ZM519.103 384.059C519.103 382.58 519.423 381.265 520.063 380.113C520.703 378.947 521.592 378.044 522.729 377.404C523.881 376.75 525.182 376.423 526.633 376.423C528.41 376.423 529.932 376.892 531.197 377.831C532.463 378.769 533.309 380.049 533.736 381.67H529.725C529.427 381.044 529 380.568 528.446 380.241C527.905 379.914 527.287 379.75 526.59 379.75C525.467 379.75 524.557 380.141 523.86 380.923C523.163 381.706 522.815 382.751 522.815 384.059C522.815 385.367 523.163 386.412 523.86 387.194C524.557 387.977 525.467 388.368 526.59 388.368C527.287 388.368 527.905 388.204 528.446 387.877C529 387.55 529.427 387.074 529.725 386.448H533.736C533.309 388.069 532.463 389.349 531.197 390.287C529.932 391.212 528.41 391.674 526.633 391.674C525.182 391.674 523.881 391.354 522.729 390.714C521.592 390.06 520.703 389.157 520.063 388.005C519.423 386.853 519.103 385.538 519.103 384.059ZM541.387 391.738C540.221 391.738 539.169 391.489 538.23 390.991C537.306 390.494 536.574 389.783 536.033 388.858C535.507 387.934 535.244 386.853 535.244 385.616C535.244 384.393 535.514 383.32 536.054 382.395C536.595 381.457 537.334 380.739 538.273 380.241C539.211 379.743 540.264 379.494 541.43 379.494C542.596 379.494 543.648 379.743 544.586 380.241C545.525 380.739 546.264 381.457 546.805 382.395C547.345 383.32 547.615 384.393 547.615 385.616C547.615 386.839 547.338 387.92 546.783 388.858C546.243 389.783 545.497 390.494 544.544 390.991C543.605 391.489 542.553 391.738 541.387 391.738ZM541.387 388.581C542.084 388.581 542.674 388.325 543.157 387.813C543.655 387.301 543.904 386.569 543.904 385.616C543.904 384.663 543.662 383.931 543.179 383.419C542.709 382.907 542.126 382.651 541.43 382.651C540.719 382.651 540.129 382.907 539.659 383.419C539.19 383.917 538.955 384.649 538.955 385.616C538.955 386.569 539.183 387.301 539.638 387.813C540.107 388.325 540.69 388.581 541.387 388.581ZM553.198 375.783V391.567H549.55V375.783H553.198ZM559.488 375.783V391.567H555.841V375.783H559.488ZM573.351 385.424C573.351 385.765 573.33 386.121 573.287 386.491H565.033C565.09 387.23 565.324 387.799 565.737 388.197C566.163 388.581 566.682 388.773 567.294 388.773C568.204 388.773 568.836 388.389 569.192 387.621H573.074C572.875 388.403 572.512 389.107 571.986 389.733C571.474 390.358 570.827 390.849 570.045 391.205C569.263 391.56 568.389 391.738 567.422 391.738C566.256 391.738 565.217 391.489 564.307 390.991C563.397 390.494 562.686 389.783 562.174 388.858C561.662 387.934 561.407 386.853 561.407 385.616C561.407 384.379 561.655 383.298 562.153 382.374C562.665 381.45 563.376 380.739 564.286 380.241C565.196 379.743 566.241 379.494 567.422 379.494C568.573 379.494 569.597 379.736 570.493 380.22C571.389 380.703 572.086 381.393 572.583 382.289C573.095 383.184 573.351 384.23 573.351 385.424ZM569.619 384.464C569.619 383.839 569.405 383.341 568.979 382.971C568.552 382.601 568.019 382.417 567.379 382.417C566.767 382.417 566.248 382.594 565.822 382.95C565.409 383.305 565.153 383.81 565.054 384.464H569.619ZM579.797 379.494C580.636 379.494 581.369 379.665 581.994 380.006C582.634 380.348 583.125 380.795 583.466 381.35V379.665H587.114V391.546C587.114 392.641 586.893 393.629 586.452 394.511C586.026 395.407 585.365 396.118 584.469 396.644C583.587 397.17 582.485 397.433 581.163 397.433C579.399 397.433 577.97 397.013 576.875 396.174C575.78 395.35 575.155 394.226 574.998 392.804H578.603C578.717 393.259 578.987 393.615 579.414 393.871C579.84 394.141 580.366 394.276 580.992 394.276C581.746 394.276 582.343 394.056 582.784 393.615C583.239 393.188 583.466 392.499 583.466 391.546V389.861C583.111 390.415 582.62 390.87 581.994 391.226C581.369 391.567 580.636 391.738 579.797 391.738C578.816 391.738 577.928 391.489 577.131 390.991C576.335 390.479 575.702 389.761 575.233 388.837C574.778 387.898 574.55 386.818 574.55 385.595C574.55 384.372 574.778 383.298 575.233 382.374C575.702 381.45 576.335 380.739 577.131 380.241C577.928 379.743 578.816 379.494 579.797 379.494ZM583.466 385.616C583.466 384.706 583.21 383.988 582.698 383.462C582.201 382.936 581.589 382.673 580.864 382.673C580.139 382.673 579.52 382.936 579.008 383.462C578.511 383.974 578.262 384.685 578.262 385.595C578.262 386.505 578.511 387.23 579.008 387.77C579.52 388.297 580.139 388.56 580.864 388.56C581.589 388.56 582.201 388.297 582.698 387.77C583.21 387.244 583.466 386.526 583.466 385.616ZM600.972 385.424C600.972 385.765 600.951 386.121 600.908 386.491H592.653C592.71 387.23 592.945 387.799 593.357 388.197C593.784 388.581 594.303 388.773 594.914 388.773C595.824 388.773 596.457 388.389 596.813 387.621H600.695C600.496 388.403 600.133 389.107 599.607 389.733C599.095 390.358 598.448 390.849 597.666 391.205C596.884 391.56 596.009 391.738 595.042 391.738C593.876 391.738 592.838 391.489 591.928 390.991C591.018 390.494 590.307 389.783 589.795 388.858C589.283 387.934 589.027 386.853 589.027 385.616C589.027 384.379 589.276 383.298 589.774 382.374C590.286 381.45 590.997 380.739 591.907 380.241C592.817 379.743 593.862 379.494 595.042 379.494C596.194 379.494 597.218 379.736 598.114 380.22C599.01 380.703 599.706 381.393 600.204 382.289C600.716 383.184 600.972 384.23 600.972 385.424ZM597.239 384.464C597.239 383.839 597.026 383.341 596.599 382.971C596.173 382.601 595.64 382.417 595 382.417C594.388 382.417 593.869 382.594 593.443 382.95C593.03 383.305 592.774 383.81 592.675 384.464H597.239ZM606.821 388.197L604.453 394.319H602.128L603.365 388.197H606.821ZM619.15 376.593C620.729 376.593 622.108 376.906 623.288 377.532C624.468 378.158 625.379 379.039 626.018 380.177C626.673 381.3 627 382.601 627 384.08C627 385.545 626.673 386.846 626.018 387.984C625.379 389.121 624.461 390.003 623.267 390.629C622.087 391.254 620.714 391.567 619.15 391.567H613.54V376.593H619.15ZM618.916 388.41C620.295 388.41 621.368 388.033 622.136 387.28C622.904 386.526 623.288 385.46 623.288 384.08C623.288 382.701 622.904 381.627 622.136 380.859C621.368 380.092 620.295 379.708 618.916 379.708H617.188V388.41H618.916ZM640.258 385.424C640.258 385.765 640.236 386.121 640.194 386.491H631.939C631.996 387.23 632.23 387.799 632.643 388.197C633.069 388.581 633.588 388.773 634.2 388.773C635.11 388.773 635.743 388.389 636.098 387.621H639.98C639.781 388.403 639.419 389.107 638.892 389.733C638.381 390.358 637.733 390.849 636.951 391.205C636.169 391.56 635.295 391.738 634.328 391.738C633.162 391.738 632.124 391.489 631.214 390.991C630.304 390.494 629.593 389.783 629.081 388.858C628.569 387.934 628.313 386.853 628.313 385.616C628.313 384.379 628.562 383.298 629.059 382.374C629.571 381.45 630.282 380.739 631.192 380.241C632.102 379.743 633.148 379.494 634.328 379.494C635.48 379.494 636.503 379.736 637.399 380.22C638.295 380.703 638.992 381.393 639.49 382.289C640.002 383.184 640.258 384.23 640.258 385.424ZM636.525 384.464C636.525 383.839 636.311 383.341 635.885 382.971C635.458 382.601 634.925 382.417 634.285 382.417C633.674 382.417 633.155 382.594 632.728 382.95C632.316 383.305 632.06 383.81 631.96 384.464H636.525ZM647.536 388.154L650.116 379.665H653.999L649.775 391.567H645.275L641.051 379.665H644.955L647.536 388.154ZM654.809 385.595C654.809 384.372 655.036 383.298 655.491 382.374C655.96 381.45 656.593 380.739 657.39 380.241C658.186 379.743 659.075 379.494 660.056 379.494C660.895 379.494 661.627 379.665 662.253 380.006C662.893 380.348 663.383 380.795 663.725 381.35V379.665H667.372V391.567H663.725V389.882C663.369 390.437 662.871 390.885 662.231 391.226C661.606 391.567 660.873 391.738 660.034 391.738C659.067 391.738 658.186 391.489 657.39 390.991C656.593 390.479 655.96 389.761 655.491 388.837C655.036 387.898 654.809 386.818 654.809 385.595ZM663.725 385.616C663.725 384.706 663.469 383.988 662.957 383.462C662.459 382.936 661.848 382.673 661.122 382.673C660.397 382.673 659.778 382.936 659.267 383.462C658.769 383.974 658.52 384.685 658.52 385.595C658.52 386.505 658.769 387.23 659.267 387.77C659.778 388.297 660.397 388.56 661.122 388.56C661.848 388.56 662.459 388.297 662.957 387.77C663.469 387.244 663.725 386.526 663.725 385.616ZM674.533 379.494C675.372 379.494 676.104 379.665 676.73 380.006C677.37 380.348 677.86 380.795 678.201 381.35V379.665H681.849V391.546C681.849 392.641 681.628 393.629 681.188 394.511C680.761 395.407 680.1 396.118 679.204 396.644C678.322 397.17 677.22 397.433 675.898 397.433C674.135 397.433 672.705 397.013 671.61 396.174C670.516 395.35 669.89 394.226 669.733 392.804H673.338C673.452 393.259 673.722 393.615 674.149 393.871C674.575 394.141 675.101 394.276 675.727 394.276C676.481 394.276 677.078 394.056 677.519 393.615C677.974 393.188 678.201 392.499 678.201 391.546V389.861C677.846 390.415 677.355 390.87 676.73 391.226C676.104 391.567 675.372 391.738 674.533 391.738C673.552 391.738 672.663 391.489 671.866 390.991C671.07 390.479 670.437 389.761 669.968 388.837C669.513 387.898 669.286 386.818 669.286 385.595C669.286 384.372 669.513 383.298 669.968 382.374C670.437 381.45 671.07 380.739 671.866 380.241C672.663 379.743 673.552 379.494 674.533 379.494ZM678.201 385.616C678.201 384.706 677.945 383.988 677.434 383.462C676.936 382.936 676.324 382.673 675.599 382.673C674.874 382.673 674.255 382.936 673.743 383.462C673.246 383.974 672.997 384.685 672.997 385.595C672.997 386.505 673.246 387.23 673.743 387.77C674.255 388.297 674.874 388.56 675.599 388.56C676.324 388.56 676.936 388.297 677.434 387.77C677.945 387.244 678.201 386.526 678.201 385.616ZM686.322 378.428C685.682 378.428 685.156 378.243 684.744 377.873C684.345 377.489 684.146 377.02 684.146 376.465C684.146 375.897 684.345 375.427 684.744 375.058C685.156 374.674 685.682 374.482 686.322 374.482C686.948 374.482 687.46 374.674 687.858 375.058C688.27 375.427 688.476 375.897 688.476 376.465C688.476 377.02 688.27 377.489 687.858 377.873C687.46 378.243 686.948 378.428 686.322 378.428ZM688.135 379.665V391.567H684.488V379.665H688.135ZM694.426 381.649C694.852 380.995 695.386 380.483 696.025 380.113C696.665 379.729 697.376 379.537 698.158 379.537V383.398H697.156C696.246 383.398 695.563 383.597 695.108 383.995C694.653 384.379 694.426 385.061 694.426 386.043V391.567H690.778V379.665H694.426V381.649ZM701.736 378.428C701.096 378.428 700.57 378.243 700.158 377.873C699.76 377.489 699.561 377.02 699.561 376.465C699.561 375.897 699.76 375.427 700.158 375.058C700.57 374.674 701.096 374.482 701.736 374.482C702.362 374.482 702.874 374.674 703.272 375.058C703.684 375.427 703.891 375.897 703.891 376.465C703.891 377.02 703.684 377.489 703.272 377.873C702.874 378.243 702.362 378.428 701.736 378.428ZM703.549 379.665V391.567H699.902V379.665H703.549Z" fill="#DED6FF"/>
<path d="M405.006 425.501C403.982 424.498 403.182 423.224 402.606 421.677C402.041 420.13 401.758 418.461 401.758 416.669C401.758 414.834 402.057 413.122 402.654 411.533C403.262 409.933 404.126 408.616 405.246 407.581H406.766V407.725C405.572 408.845 404.67 410.194 404.062 411.773C403.465 413.341 403.166 414.973 403.166 416.669C403.166 418.322 403.449 419.901 404.014 421.405C404.59 422.909 405.428 424.226 406.526 425.357V425.501H405.006ZM418.377 416.781C418.783 416.845 419.151 417.01 419.481 417.277C419.823 417.544 420.089 417.874 420.281 418.269C420.484 418.664 420.585 419.085 420.585 419.533C420.585 420.098 420.441 420.61 420.153 421.069C419.865 421.517 419.444 421.874 418.889 422.141C418.345 422.397 417.7 422.525 416.953 422.525H412.793V411.373H416.793C417.551 411.373 418.196 411.501 418.729 411.757C419.263 412.002 419.663 412.338 419.929 412.765C420.196 413.192 420.329 413.672 420.329 414.205C420.329 414.866 420.148 415.416 419.785 415.853C419.433 416.28 418.964 416.589 418.377 416.781ZM414.249 416.189H416.697C417.38 416.189 417.908 416.029 418.281 415.709C418.655 415.389 418.841 414.946 418.841 414.381C418.841 413.816 418.655 413.373 418.281 413.053C417.908 412.733 417.369 412.573 416.665 412.573H414.249V416.189ZM416.825 421.325C417.551 421.325 418.116 421.154 418.521 420.813C418.927 420.472 419.129 419.997 419.129 419.389C419.129 418.77 418.916 418.285 418.489 417.933C418.063 417.57 417.492 417.389 416.777 417.389H414.249V421.325H416.825ZM422.062 418.109C422.062 417.213 422.243 416.429 422.606 415.757C422.969 415.074 423.465 414.546 424.094 414.173C424.734 413.8 425.443 413.613 426.222 413.613C426.99 413.613 427.657 413.778 428.222 414.109C428.787 414.44 429.209 414.856 429.486 415.357V413.757H430.958V422.525H429.486V420.893C429.198 421.405 428.766 421.832 428.19 422.173C427.625 422.504 426.963 422.669 426.206 422.669C425.427 422.669 424.723 422.477 424.094 422.093C423.465 421.709 422.969 421.17 422.606 420.477C422.243 419.784 422.062 418.994 422.062 418.109ZM429.486 418.125C429.486 417.464 429.353 416.888 429.086 416.397C428.819 415.906 428.457 415.533 427.998 415.277C427.55 415.01 427.054 414.877 426.51 414.877C425.966 414.877 425.47 415.005 425.022 415.261C424.574 415.517 424.217 415.89 423.95 416.381C423.683 416.872 423.55 417.448 423.55 418.109C423.55 418.781 423.683 419.368 423.95 419.869C424.217 420.36 424.574 420.738 425.022 421.005C425.47 421.261 425.966 421.389 426.51 421.389C427.054 421.389 427.55 421.261 427.998 421.005C428.457 420.738 428.819 420.36 429.086 419.869C429.353 419.368 429.486 418.786 429.486 418.125ZM432.874 418.125C432.874 417.218 433.056 416.429 433.418 415.757C433.781 415.074 434.282 414.546 434.922 414.173C435.573 413.8 436.314 413.613 437.146 413.613C438.224 413.613 439.109 413.874 439.802 414.397C440.506 414.92 440.97 415.645 441.194 416.573H439.626C439.477 416.04 439.184 415.618 438.746 415.309C438.32 415 437.786 414.845 437.146 414.845C436.314 414.845 435.642 415.133 435.13 415.709C434.618 416.274 434.362 417.08 434.362 418.125C434.362 419.181 434.618 419.997 435.13 420.573C435.642 421.149 436.314 421.437 437.146 421.437C437.786 421.437 438.32 421.288 438.746 420.989C439.173 420.69 439.466 420.264 439.626 419.709H441.194C440.96 420.605 440.49 421.325 439.786 421.869C439.082 422.402 438.202 422.669 437.146 422.669C436.314 422.669 435.573 422.482 434.922 422.109C434.282 421.736 433.781 421.208 433.418 420.525C433.056 419.842 432.874 419.042 432.874 418.125ZM447.489 413.597C448.151 413.597 448.748 413.741 449.281 414.029C449.815 414.306 450.231 414.728 450.529 415.293C450.839 415.858 450.993 416.546 450.993 417.357V422.525H449.553V417.565C449.553 416.69 449.335 416.024 448.897 415.565C448.46 415.096 447.863 414.861 447.105 414.861C446.337 414.861 445.724 415.101 445.265 415.581C444.817 416.061 444.593 416.76 444.593 417.677V422.525H443.137V410.685H444.593V415.005C444.881 414.557 445.276 414.21 445.777 413.965C446.289 413.72 446.86 413.597 447.489 413.597ZM461.372 417.805C461.372 418.082 461.356 418.376 461.324 418.685H454.316C454.369 419.549 454.662 420.226 455.196 420.717C455.74 421.197 456.396 421.437 457.164 421.437C457.793 421.437 458.316 421.293 458.732 421.005C459.158 420.706 459.457 420.312 459.628 419.821H461.196C460.961 420.664 460.492 421.352 459.788 421.885C459.084 422.408 458.209 422.669 457.164 422.669C456.332 422.669 455.585 422.482 454.924 422.109C454.273 421.736 453.761 421.208 453.388 420.525C453.014 419.832 452.828 419.032 452.828 418.125C452.828 417.218 453.009 416.424 453.372 415.741C453.734 415.058 454.241 414.536 454.892 414.173C455.553 413.8 456.31 413.613 457.164 413.613C457.996 413.613 458.732 413.794 459.372 414.157C460.012 414.52 460.502 415.021 460.844 415.661C461.196 416.29 461.372 417.005 461.372 417.805ZM459.868 417.501C459.868 416.946 459.745 416.472 459.5 416.077C459.254 415.672 458.918 415.368 458.492 415.165C458.076 414.952 457.612 414.845 457.1 414.845C456.364 414.845 455.734 415.08 455.212 415.549C454.7 416.018 454.406 416.669 454.332 417.501H459.868ZM464.749 410.685V422.525H463.293V410.685H464.749ZM471.055 422.669C470.234 422.669 469.487 422.482 468.815 422.109C468.154 421.736 467.631 421.208 467.247 420.525C466.874 419.832 466.687 419.032 466.687 418.125C466.687 417.229 466.879 416.44 467.263 415.757C467.658 415.064 468.191 414.536 468.863 414.173C469.535 413.8 470.287 413.613 471.119 413.613C471.951 413.613 472.703 413.8 473.375 414.173C474.047 414.536 474.575 415.058 474.959 415.741C475.354 416.424 475.551 417.218 475.551 418.125C475.551 419.032 475.348 419.832 474.943 420.525C474.548 421.208 474.01 421.736 473.327 422.109C472.644 422.482 471.887 422.669 471.055 422.669ZM471.055 421.389C471.578 421.389 472.068 421.266 472.527 421.021C472.986 420.776 473.354 420.408 473.631 419.917C473.919 419.426 474.063 418.829 474.063 418.125C474.063 417.421 473.924 416.824 473.647 416.333C473.37 415.842 473.007 415.48 472.559 415.245C472.111 415 471.626 414.877 471.103 414.877C470.57 414.877 470.079 415 469.631 415.245C469.194 415.48 468.842 415.842 468.575 416.333C468.308 416.824 468.175 417.421 468.175 418.125C468.175 418.84 468.303 419.442 468.559 419.933C468.826 420.424 469.178 420.792 469.615 421.037C470.052 421.272 470.532 421.389 471.055 421.389ZM478.921 415.181C479.177 414.68 479.54 414.29 480.009 414.013C480.489 413.736 481.071 413.597 481.753 413.597V415.101H481.369C479.737 415.101 478.921 415.986 478.921 417.757V422.525H477.465V413.757H478.921V415.181ZM491.524 422.669C490.702 422.669 489.956 422.482 489.284 422.109C488.622 421.736 488.1 421.208 487.716 420.525C487.342 419.832 487.156 419.032 487.156 418.125C487.156 417.229 487.348 416.44 487.732 415.757C488.126 415.064 488.66 414.536 489.332 414.173C490.004 413.8 490.756 413.613 491.588 413.613C492.42 413.613 493.172 413.8 493.844 414.173C494.516 414.536 495.044 415.058 495.428 415.741C495.822 416.424 496.02 417.218 496.02 418.125C496.02 419.032 495.817 419.832 495.412 420.525C495.017 421.208 494.478 421.736 493.796 422.109C493.113 422.482 492.356 422.669 491.524 422.669ZM491.524 421.389C492.046 421.389 492.537 421.266 492.996 421.021C493.454 420.776 493.822 420.408 494.1 419.917C494.388 419.426 494.532 418.829 494.532 418.125C494.532 417.421 494.393 416.824 494.116 416.333C493.838 415.842 493.476 415.48 493.028 415.245C492.58 415 492.094 414.877 491.572 414.877C491.038 414.877 490.548 415 490.1 415.245C489.662 415.48 489.31 415.842 489.044 416.333C488.777 416.824 488.644 417.421 488.644 418.125C488.644 418.84 488.772 419.442 489.028 419.933C489.294 420.424 489.646 420.792 490.084 421.037C490.521 421.272 491.001 421.389 491.524 421.389ZM501.502 414.957H499.662V422.525H498.206V414.957H497.07V413.757H498.206V413.133C498.206 412.152 498.457 411.437 498.958 410.989C499.47 410.53 500.286 410.301 501.406 410.301V411.517C500.766 411.517 500.313 411.645 500.046 411.901C499.79 412.146 499.662 412.557 499.662 413.133V413.757H501.502V414.957ZM506.921 416.941C506.921 415.853 507.167 414.877 507.657 414.013C508.148 413.138 508.815 412.456 509.657 411.965C510.511 411.474 511.455 411.229 512.489 411.229C513.705 411.229 514.767 411.522 515.673 412.109C516.58 412.696 517.241 413.528 517.657 414.605H515.913C515.604 413.933 515.156 413.416 514.569 413.053C513.993 412.69 513.3 412.509 512.489 412.509C511.711 412.509 511.012 412.69 510.393 413.053C509.775 413.416 509.289 413.933 508.937 414.605C508.585 415.266 508.409 416.045 508.409 416.941C508.409 417.826 508.585 418.605 508.937 419.277C509.289 419.938 509.775 420.45 510.393 420.813C511.012 421.176 511.711 421.357 512.489 421.357C513.3 421.357 513.993 421.181 514.569 420.829C515.156 420.466 515.604 419.949 515.913 419.277H517.657C517.241 420.344 516.58 421.17 515.673 421.757C514.767 422.333 513.705 422.621 512.489 422.621C511.455 422.621 510.511 422.381 509.657 421.901C508.815 421.41 508.148 420.733 507.657 419.869C507.167 419.005 506.921 418.029 506.921 416.941ZM523.649 422.669C522.827 422.669 522.081 422.482 521.409 422.109C520.747 421.736 520.225 421.208 519.841 420.525C519.467 419.832 519.281 419.032 519.281 418.125C519.281 417.229 519.473 416.44 519.857 415.757C520.251 415.064 520.785 414.536 521.457 414.173C522.129 413.8 522.881 413.613 523.713 413.613C524.545 413.613 525.297 413.8 525.969 414.173C526.641 414.536 527.169 415.058 527.553 415.741C527.947 416.424 528.145 417.218 528.145 418.125C528.145 419.032 527.942 419.832 527.537 420.525C527.142 421.208 526.603 421.736 525.921 422.109C525.238 422.482 524.481 422.669 523.649 422.669ZM523.649 421.389C524.171 421.389 524.662 421.266 525.121 421.021C525.579 420.776 525.947 420.408 526.225 419.917C526.513 419.426 526.657 418.829 526.657 418.125C526.657 417.421 526.518 416.824 526.241 416.333C525.963 415.842 525.601 415.48 525.153 415.245C524.705 415 524.219 414.877 523.697 414.877C523.163 414.877 522.673 415 522.225 415.245C521.787 415.48 521.435 415.842 521.169 416.333C520.902 416.824 520.769 417.421 520.769 418.125C520.769 418.84 520.897 419.442 521.153 419.933C521.419 420.424 521.771 420.792 522.209 421.037C522.646 421.272 523.126 421.389 523.649 421.389ZM540.603 413.597C541.286 413.597 541.894 413.741 542.427 414.029C542.96 414.306 543.382 414.728 543.691 415.293C544 415.858 544.155 416.546 544.155 417.357V422.525H542.715V417.565C542.715 416.69 542.496 416.024 542.059 415.565C541.632 415.096 541.051 414.861 540.315 414.861C539.558 414.861 538.955 415.106 538.507 415.597C538.059 416.077 537.835 416.776 537.835 417.693V422.525H536.395V417.565C536.395 416.69 536.176 416.024 535.739 415.565C535.312 415.096 534.731 414.861 533.995 414.861C533.238 414.861 532.635 415.106 532.187 415.597C531.739 416.077 531.515 416.776 531.515 417.693V422.525H530.059V413.757H531.515V415.021C531.803 414.562 532.187 414.21 532.667 413.965C533.158 413.72 533.696 413.597 534.283 413.597C535.019 413.597 535.67 413.762 536.235 414.093C536.8 414.424 537.222 414.909 537.499 415.549C537.744 414.93 538.15 414.45 538.715 414.109C539.28 413.768 539.91 413.597 540.603 413.597ZM547.999 415.373C548.287 414.872 548.714 414.456 549.279 414.125C549.855 413.784 550.522 413.613 551.279 413.613C552.058 413.613 552.762 413.8 553.391 414.173C554.031 414.546 554.533 415.074 554.895 415.757C555.258 416.429 555.439 417.213 555.439 418.109C555.439 418.994 555.258 419.784 554.895 420.477C554.533 421.17 554.031 421.709 553.391 422.093C552.762 422.477 552.058 422.669 551.279 422.669C550.533 422.669 549.871 422.504 549.295 422.173C548.73 421.832 548.298 421.41 547.999 420.909V426.685H546.543V413.757H547.999V415.373ZM553.951 418.109C553.951 417.448 553.818 416.872 553.551 416.381C553.285 415.89 552.922 415.517 552.463 415.261C552.015 415.005 551.519 414.877 550.975 414.877C550.442 414.877 549.946 415.01 549.487 415.277C549.039 415.533 548.677 415.912 548.399 416.413C548.133 416.904 547.999 417.474 547.999 418.125C547.999 418.786 548.133 419.368 548.399 419.869C548.677 420.36 549.039 420.738 549.487 421.005C549.946 421.261 550.442 421.389 550.975 421.389C551.519 421.389 552.015 421.261 552.463 421.005C552.922 420.738 553.285 420.36 553.551 419.869C553.818 419.368 553.951 418.781 553.951 418.109ZM565.132 413.757V422.525H563.676V421.229C563.399 421.677 563.009 422.029 562.508 422.285C562.017 422.53 561.473 422.653 560.876 422.653C560.193 422.653 559.58 422.514 559.036 422.237C558.492 421.949 558.06 421.522 557.74 420.957C557.431 420.392 557.276 419.704 557.276 418.893V413.757H558.716V418.701C558.716 419.565 558.935 420.232 559.372 420.701C559.809 421.16 560.407 421.389 561.164 421.389C561.943 421.389 562.556 421.149 563.004 420.669C563.452 420.189 563.676 419.49 563.676 418.573V413.757H565.132ZM569.366 414.957V420.125C569.366 420.552 569.457 420.856 569.638 421.037C569.82 421.208 570.134 421.293 570.582 421.293H571.654V422.525H570.342C569.532 422.525 568.924 422.338 568.518 421.965C568.113 421.592 567.91 420.978 567.91 420.125V414.957H566.774V413.757H567.91V411.549H569.366V413.757H571.654V414.957H569.366ZM581.418 417.805C581.418 418.082 581.402 418.376 581.37 418.685H574.362C574.416 419.549 574.709 420.226 575.242 420.717C575.786 421.197 576.442 421.437 577.21 421.437C577.84 421.437 578.362 421.293 578.778 421.005C579.205 420.706 579.504 420.312 579.674 419.821H581.242C581.008 420.664 580.538 421.352 579.834 421.885C579.13 422.408 578.256 422.669 577.21 422.669C576.378 422.669 575.632 422.482 574.97 422.109C574.32 421.736 573.808 421.208 573.434 420.525C573.061 419.832 572.874 419.032 572.874 418.125C572.874 417.218 573.056 416.424 573.418 415.741C573.781 415.058 574.288 414.536 574.938 414.173C575.6 413.8 576.357 413.613 577.21 413.613C578.042 413.613 578.778 413.794 579.418 414.157C580.058 414.52 580.549 415.021 580.89 415.661C581.242 416.29 581.418 417.005 581.418 417.805ZM579.914 417.501C579.914 416.946 579.792 416.472 579.546 416.077C579.301 415.672 578.965 415.368 578.538 415.165C578.122 414.952 577.658 414.845 577.146 414.845C576.41 414.845 575.781 415.08 575.258 415.549C574.746 416.018 574.453 416.669 574.378 417.501H579.914ZM584.796 415.181C585.052 414.68 585.415 414.29 585.884 414.013C586.364 413.736 586.946 413.597 587.628 413.597V415.101H587.244C585.612 415.101 584.796 415.986 584.796 417.757V422.525H583.34V413.757H584.796V415.181ZM600.167 420.045H595.303L594.407 422.525H592.871L596.903 411.437H598.583L602.599 422.525H601.063L600.167 420.045ZM599.751 418.861L597.735 413.229L595.719 418.861H599.751ZM605.812 415.373C606.1 414.872 606.527 414.456 607.092 414.125C607.668 413.784 608.335 413.613 609.092 413.613C609.871 413.613 610.575 413.8 611.204 414.173C611.844 414.546 612.345 415.074 612.708 415.757C613.071 416.429 613.252 417.213 613.252 418.109C613.252 418.994 613.071 419.784 612.708 420.477C612.345 421.17 611.844 421.709 611.204 422.093C610.575 422.477 609.871 422.669 609.092 422.669C608.345 422.669 607.684 422.504 607.108 422.173C606.543 421.832 606.111 421.41 605.812 420.909V426.685H604.356V413.757H605.812V415.373ZM611.764 418.109C611.764 417.448 611.631 416.872 611.364 416.381C611.097 415.89 610.735 415.517 610.276 415.261C609.828 415.005 609.332 414.877 608.788 414.877C608.255 414.877 607.759 415.01 607.3 415.277C606.852 415.533 606.489 415.912 606.212 416.413C605.945 416.904 605.812 417.474 605.812 418.125C605.812 418.786 605.945 419.368 606.212 419.869C606.489 420.36 606.852 420.738 607.3 421.005C607.759 421.261 608.255 421.389 608.788 421.389C609.332 421.389 609.828 421.261 610.276 421.005C610.735 420.738 611.097 420.36 611.364 419.869C611.631 419.368 611.764 418.781 611.764 418.109ZM616.624 415.373C616.912 414.872 617.339 414.456 617.904 414.125C618.48 413.784 619.147 413.613 619.904 413.613C620.683 413.613 621.387 413.8 622.016 414.173C622.656 414.546 623.158 415.074 623.52 415.757C623.883 416.429 624.064 417.213 624.064 418.109C624.064 418.994 623.883 419.784 623.52 420.477C623.158 421.17 622.656 421.709 622.016 422.093C621.387 422.477 620.683 422.669 619.904 422.669C619.158 422.669 618.496 422.504 617.92 422.173C617.355 421.832 616.923 421.41 616.624 420.909V426.685H615.168V413.757H616.624V415.373ZM622.576 418.109C622.576 417.448 622.443 416.872 622.176 416.381C621.91 415.89 621.547 415.517 621.088 415.261C620.64 415.005 620.144 414.877 619.6 414.877C619.067 414.877 618.571 415.01 618.112 415.277C617.664 415.533 617.302 415.912 617.024 416.413C616.758 416.904 616.624 417.474 616.624 418.125C616.624 418.786 616.758 419.368 617.024 419.869C617.302 420.36 617.664 420.738 618.112 421.005C618.571 421.261 619.067 421.389 619.6 421.389C620.144 421.389 620.64 421.261 621.088 421.005C621.547 420.738 621.91 420.36 622.176 419.869C622.443 419.368 622.576 418.781 622.576 418.109ZM627.437 410.685V422.525H625.981V410.685H627.437ZM630.67 412.333C630.393 412.333 630.158 412.237 629.966 412.045C629.774 411.853 629.678 411.618 629.678 411.341C629.678 411.064 629.774 410.829 629.966 410.637C630.158 410.445 630.393 410.349 630.67 410.349C630.937 410.349 631.161 410.445 631.342 410.637C631.534 410.829 631.63 411.064 631.63 411.341C631.63 411.618 631.534 411.853 631.342 412.045C631.161 412.237 630.937 412.333 630.67 412.333ZM631.374 413.757V422.525H629.918V413.757H631.374ZM633.312 418.125C633.312 417.218 633.493 416.429 633.856 415.757C634.219 415.074 634.72 414.546 635.36 414.173C636.011 413.8 636.752 413.613 637.584 413.613C638.661 413.613 639.547 413.874 640.24 414.397C640.944 414.92 641.408 415.645 641.632 416.573H640.064C639.915 416.04 639.621 415.618 639.184 415.309C638.757 415 638.224 414.845 637.584 414.845C636.752 414.845 636.08 415.133 635.568 415.709C635.056 416.274 634.8 417.08 634.8 418.125C634.8 419.181 635.056 419.997 635.568 420.573C636.08 421.149 636.752 421.437 637.584 421.437C638.224 421.437 638.757 421.288 639.184 420.989C639.611 420.69 639.904 420.264 640.064 419.709H641.632C641.397 420.605 640.928 421.325 640.224 421.869C639.52 422.402 638.64 422.669 637.584 422.669C636.752 422.669 636.011 422.482 635.36 422.109C634.72 421.736 634.219 421.208 633.856 420.525C633.493 419.842 633.312 419.042 633.312 418.125ZM643.031 418.109C643.031 417.213 643.212 416.429 643.575 415.757C643.937 415.074 644.433 414.546 645.063 414.173C645.703 413.8 646.412 413.613 647.191 413.613C647.959 413.613 648.625 413.778 649.191 414.109C649.756 414.44 650.177 414.856 650.455 415.357V413.757H651.927V422.525H650.455V420.893C650.167 421.405 649.735 421.832 649.159 422.173C648.593 422.504 647.932 422.669 647.175 422.669C646.396 422.669 645.692 422.477 645.063 422.093C644.433 421.709 643.937 421.17 643.575 420.477C643.212 419.784 643.031 418.994 643.031 418.109ZM650.455 418.125C650.455 417.464 650.321 416.888 650.055 416.397C649.788 415.906 649.425 415.533 648.967 415.277C648.519 415.01 648.023 414.877 647.479 414.877C646.935 414.877 646.439 415.005 645.991 415.261C645.543 415.517 645.185 415.89 644.919 416.381C644.652 416.872 644.519 417.448 644.519 418.109C644.519 418.781 644.652 419.368 644.919 419.869C645.185 420.36 645.543 420.738 645.991 421.005C646.439 421.261 646.935 421.389 647.479 421.389C648.023 421.389 648.519 421.261 648.967 421.005C649.425 420.738 649.788 420.36 650.055 419.869C650.321 419.368 650.455 418.786 650.455 418.125ZM656.163 414.957V420.125C656.163 420.552 656.254 420.856 656.435 421.037C656.617 421.208 656.931 421.293 657.379 421.293H658.451V422.525H657.139C656.329 422.525 655.721 422.338 655.315 421.965C654.91 421.592 654.707 420.978 654.707 420.125V414.957H653.571V413.757H654.707V411.549H656.163V413.757H658.451V414.957H656.163ZM660.967 412.333C660.69 412.333 660.455 412.237 660.263 412.045C660.071 411.853 659.975 411.618 659.975 411.341C659.975 411.064 660.071 410.829 660.263 410.637C660.455 410.445 660.69 410.349 660.967 410.349C661.234 410.349 661.458 410.445 661.639 410.637C661.831 410.829 661.927 411.064 661.927 411.341C661.927 411.618 661.831 411.853 661.639 412.045C661.458 412.237 661.234 412.333 660.967 412.333ZM661.671 413.757V422.525H660.215V413.757H661.671ZM667.977 422.669C667.155 422.669 666.409 422.482 665.737 422.109C665.075 421.736 664.553 421.208 664.169 420.525C663.795 419.832 663.609 419.032 663.609 418.125C663.609 417.229 663.801 416.44 664.185 415.757C664.579 415.064 665.113 414.536 665.785 414.173C666.457 413.8 667.209 413.613 668.041 413.613C668.873 413.613 669.625 413.8 670.297 414.173C670.969 414.536 671.497 415.058 671.881 415.741C672.275 416.424 672.473 417.218 672.473 418.125C672.473 419.032 672.27 419.832 671.865 420.525C671.47 421.208 670.931 421.736 670.249 422.109C669.566 422.482 668.809 422.669 667.977 422.669ZM667.977 421.389C668.499 421.389 668.99 421.266 669.449 421.021C669.907 420.776 670.275 420.408 670.553 419.917C670.841 419.426 670.985 418.829 670.985 418.125C670.985 417.421 670.846 416.824 670.569 416.333C670.291 415.842 669.929 415.48 669.481 415.245C669.033 415 668.547 414.877 668.025 414.877C667.491 414.877 667.001 415 666.553 415.245C666.115 415.48 665.763 415.842 665.497 416.333C665.23 416.824 665.097 417.421 665.097 418.125C665.097 418.84 665.225 419.442 665.481 419.933C665.747 420.424 666.099 420.792 666.537 421.037C666.974 421.272 667.454 421.389 667.977 421.389ZM678.659 413.597C679.726 413.597 680.59 413.922 681.251 414.573C681.913 415.213 682.243 416.141 682.243 417.357V422.525H680.803V417.565C680.803 416.69 680.585 416.024 680.147 415.565C679.71 415.096 679.113 414.861 678.355 414.861C677.587 414.861 676.974 415.101 676.515 415.581C676.067 416.061 675.843 416.76 675.843 417.677V422.525H674.387V413.757H675.843V415.005C676.131 414.557 676.521 414.21 677.011 413.965C677.513 413.72 678.062 413.597 678.659 413.597ZM688.423 425.501V425.357C689.522 424.226 690.354 422.909 690.919 421.405C691.495 419.901 691.783 418.322 691.783 416.669C691.783 414.973 691.479 413.341 690.871 411.773C690.274 410.194 689.378 408.845 688.183 407.725V407.581H689.703C690.823 408.616 691.682 409.933 692.279 411.533C692.887 413.122 693.191 414.834 693.191 416.669C693.191 418.461 692.903 420.13 692.327 421.677C691.762 423.224 690.967 424.498 689.943 425.501H688.423Z" fill="white"/>
<circle cx="328.115" cy="46.071" r="8.98944" fill="#D9D9D9"/>
<circle cx="361.825" cy="162.934" r="8.98944" fill="#D9D9D9"/>
<circle cx="291.033" cy="278.673" r="8.98944" fill="#D9D9D9"/>
<circle cx="361.825" cy="384.299" r="8.98944" fill="#D9D9D9"/>
<circle cx="329.238" cy="477.564" r="8.98944" fill="#D9D9D9"/>
<defs>
<linearGradient id="paint0_linear_23_136" x1="295.528" y1="35.9578" x2="329.551" y2="-13.0354" gradientUnits="userSpaceOnUse">
<stop stop-color="#DED6FF"/>
<stop offset="1" stop-color="#9074FF"/>
</linearGradient>
<linearGradient id="paint1_linear_23_136" x1="303.394" y1="531.501" x2="338.645" y2="486.486" gradientUnits="userSpaceOnUse">
<stop stop-color="#DED6FF"/>
<stop offset="1" stop-color="#9074FF"/>
</linearGradient>
<linearGradient id="paint2_linear_23_136" x1="324.867" y1="46.0708" x2="326.887" y2="46.0762" gradientUnits="userSpaceOnUse">
<stop stop-color="#DED6FF"/>
<stop offset="1" stop-color="#9074FF"/>
</linearGradient>
<linearGradient id="paint3_linear_23_136" x1="326.991" y1="165.057" x2="327.055" y2="163.04" gradientUnits="userSpaceOnUse">
<stop stop-color="#DED6FF"/>
<stop offset="1" stop-color="#9074FF"/>
</linearGradient>
<linearGradient id="paint4_linear_23_136" x1="291.033" y1="281.92" x2="291.098" y2="279.902" gradientUnits="userSpaceOnUse">
<stop stop-color="#DED6FF"/>
<stop offset="1" stop-color="#9074FF"/>
</linearGradient>
<linearGradient id="paint5_linear_23_136" x1="325.867" y1="387.546" x2="325.932" y2="385.528" gradientUnits="userSpaceOnUse">
<stop stop-color="#DED6FF"/>
<stop offset="1" stop-color="#9074FF"/>
</linearGradient>
</defs>
</svg>
