<svg width="33" height="33" viewBox="0 0 33 33" fill="none" xmlns="http://www.w3.org/2000/svg">
<path d="M2.12961 12.0648H30.1296M27.6296 27.0648H4.62961C3.96657 27.0648 3.33068 26.8015 2.86184 26.3326C2.393 25.8638 2.12961 25.2279 2.12961 24.5648V7.56484C2.12961 6.9018 2.393 6.26592 2.86184 5.79708C3.33068 5.32823 3.96657 5.06484 4.62961 5.06484H9.37273C9.86635 5.06485 10.3489 5.211 10.7596 5.48484L12.4996 6.64484C12.9103 6.91869 13.3929 7.06483 13.8865 7.06484H27.6296C28.2926 7.06484 28.9285 7.32823 29.3974 7.79708C29.8662 8.26592 30.1296 8.9018 30.1296 9.56484V24.5648C30.1296 25.2279 29.8662 25.8638 29.3974 26.3326C28.9285 26.8015 28.2926 27.0648 27.6296 27.0648Z" stroke="#0A0324" stroke-width="1.14121" stroke-linecap="round" stroke-linejoin="round"/>
</svg>
