<svg width="33" height="33" viewBox="0 0 33 33" fill="none" xmlns="http://www.w3.org/2000/svg">
<g clip-path="url(#clip0_39_334)">
<path d="M16.6758 0.1297C7.83578 0.1297 0.675781 7.2897 0.675781 16.1297C0.675781 23.2097 5.25578 29.1897 11.6158 31.3097C12.4158 31.4497 12.7158 30.9697 12.7158 30.5497C12.7158 30.1697 12.6958 28.9097 12.6958 27.5697C8.67578 28.3097 7.63578 26.5897 7.31578 25.6897C7.13578 25.2297 6.35578 23.8097 5.67578 23.4297C5.11578 23.1297 4.31578 22.3897 5.65578 22.3697C6.91578 22.3497 7.81578 23.5297 8.11578 24.0097C9.55578 26.4297 11.8558 25.7497 12.7758 25.3297C12.9158 24.2897 13.3358 23.5897 13.7958 23.1897C10.2358 22.7897 6.51578 21.4097 6.51578 15.2897C6.51578 13.5497 7.13578 12.1097 8.15578 10.9897C7.99578 10.5897 7.43578 8.9497 8.31578 6.7497C8.31578 6.7497 9.65578 6.3297 12.7158 8.3897C13.9958 8.0297 15.3558 7.8497 16.7158 7.8497C18.0758 7.8497 19.4358 8.0297 20.7158 8.3897C23.7758 6.3097 25.1158 6.7497 25.1158 6.7497C25.9958 8.9497 25.4358 10.5897 25.2758 10.9897C26.2958 12.1097 26.9158 13.5297 26.9158 15.2897C26.9158 21.4297 23.1758 22.7897 19.6158 23.1897C20.1958 23.6897 20.6958 24.6497 20.6958 26.1497C20.6958 28.2897 20.6758 30.0097 20.6758 30.5497C20.6758 30.9697 20.9758 31.4697 21.7758 31.3097C24.9522 30.2377 27.7125 28.1964 29.6678 25.4732C31.6232 22.7501 32.6752 19.4822 32.6758 16.1297C32.6758 7.2897 25.5158 0.1297 16.6758 0.1297Z" fill="#DED6FF"/>
</g>
<defs>
<clipPath id="clip0_39_334">
<rect width="32" height="32" fill="white" transform="translate(0.675781 0.1297)"/>
</clipPath>
</defs>
</svg>
