<svg width="590" height="349" viewBox="0 0 590 349" fill="none" xmlns="http://www.w3.org/2000/svg">
<g clip-path="url(#clip0_2_136)">
<path d="M90.0022 298.206C76.9007 308.715 73.1875 327.206 73.1875 327.206C73.1875 327.206 90.7162 328.658 103.818 318.149C116.919 307.639 120.632 289.149 120.632 289.149C120.632 289.149 103.104 287.697 90.0022 298.206Z" fill="#F1F1F1"/>
<path d="M95.4597 303.14C89.163 319.366 73.393 327.728 73.393 327.728C73.393 327.728 67.832 309.782 74.1288 293.556C80.4255 277.329 96.1954 268.968 96.1954 268.968C96.1954 268.968 101.756 286.914 95.4597 303.14Z" fill="#F1F1F1"/>
<path d="M472.402 256.233C471.01 246.142 470.642 235.919 471.305 225.743L472.402 208.903C466.358 221.843 467.724 238.874 472.402 256.233Z" fill="#CACACA"/>
<path d="M477.114 259.05C476.444 253.029 476.268 246.956 476.587 240.902L477.114 230.877C474.207 238.58 474.864 248.717 477.114 259.05Z" fill="#CACACA"/>
<path d="M498.062 271.447V277.082C498.06 277.529 497.894 277.958 497.599 278.274C497.305 278.591 496.907 278.77 496.491 278.772H493.873C493.804 278.772 493.736 278.786 493.672 278.814C493.609 278.842 493.551 278.884 493.502 278.936C493.453 278.989 493.415 279.051 493.389 279.119C493.362 279.188 493.349 279.261 493.349 279.335V325.538C493.347 325.986 493.181 326.415 492.887 326.731C492.593 327.048 492.194 327.226 491.778 327.229H459.837C459.42 327.228 459.021 327.05 458.727 326.733C458.432 326.416 458.266 325.987 458.266 325.538V279.335C458.266 279.186 458.21 279.043 458.112 278.937C458.014 278.832 457.881 278.772 457.742 278.772H454.601C454.184 278.772 453.785 278.593 453.49 278.276C453.196 277.96 453.03 277.53 453.03 277.082V271.447C453.03 271.225 453.07 271.005 453.149 270.8C453.228 270.595 453.343 270.408 453.489 270.251C453.635 270.094 453.808 269.97 453.999 269.885C454.19 269.8 454.394 269.756 454.601 269.757H496.491C496.907 269.758 497.306 269.937 497.6 270.253C497.895 270.57 498.061 270.999 498.062 271.447Z" fill="#F2F2F2"/>
<path d="M493.396 279.955H458.313V281.646H493.396V279.955Z" fill="#E6E6E6"/>
<path d="M493.349 304.829C481.61 310.056 469.742 310.114 457.742 304.829V292.92C469.294 288.745 481.797 288.745 493.349 292.92V304.829Z" fill="#E6E6E6"/>
<path d="M296.704 122.747C322.911 122.747 344.156 99.8865 344.156 71.6864C344.156 43.4862 322.911 20.6255 296.704 20.6255C270.497 20.6255 249.252 43.4862 249.252 71.6864C249.252 99.8865 270.497 122.747 296.704 122.747Z" fill="#FEB8B8"/>
<path d="M341.025 27.6353C333.93 15.2388 322.825 6.10435 309.847 1.9902L304.021 6.56463V0.624871C300.905 0.111551 297.75 -0.0861944 294.599 0.0342352L289.573 4.92761V0.440779C282.131 1.43582 274.962 4.07916 268.518 8.20412C262.073 12.3291 256.492 17.8462 252.128 24.4075C241.213 41.3389 239.371 64.8942 250.106 81.9614C253.053 72.216 256.63 63.0721 259.577 53.3277C261.893 53.6674 264.241 53.6797 266.56 53.3641L270.145 44.3619L271.147 52.9832C282.26 51.9417 298.743 49.654 309.278 47.5582L308.253 40.9442L314.383 46.44C317.61 45.6407 319.526 44.9152 319.368 44.361C327.204 57.9534 336.793 66.6346 344.627 80.2269C347.603 61.061 351.028 45.1248 341.025 27.6353Z" fill="#2F2E41"/>
<path d="M398.76 202.991C397.128 192.428 395.445 181.662 390.883 172.146C387.884 165.912 383.124 159.973 376.708 158.74C375.444 158.619 374.202 158.31 373.017 157.821C371.137 156.846 345.871 141.326 341.855 138.623C338.407 136.303 332.965 132.006 330.22 132.006C327.459 131.941 316.872 134.592 275.551 131.116C275.551 131.116 264.199 135.931 255.416 141.769C255.283 141.675 212.528 166.38 210.921 166.315C207.88 166.177 205.052 168.273 203.308 170.912C201.565 173.551 200.747 176.818 199.891 179.977C209.229 202.355 217.773 224.762 227.112 247.14C227.55 247.983 227.782 248.931 227.788 249.896C227.6 250.898 227.203 251.84 226.626 252.652C222.046 260.569 222.192 270.526 222.692 279.83C223.193 289.134 223.812 298.962 219.948 307.302C218.897 309.592 217.53 311.688 216.53 313.977C214.189 319.163 213.343 335.749 214.71 341.32L386.024 346.601C382.34 335.706 398.76 202.991 398.76 202.991Z" fill="#6C63FF"/>
<path d="M185.082 248.132C184.741 250.793 184.706 253.489 184.98 256.158L187.435 294.102C187.666 297.679 187.893 301.246 188.205 304.813C188.794 311.737 189.674 318.605 190.766 325.463C190.791 326.437 191.173 327.36 191.83 328.031C192.487 328.701 193.364 329.064 194.269 329.039C205.077 331.5 216.244 331.402 227.275 330.731C244.108 329.72 287.172 327.808 289.803 324.13C292.434 320.452 290.9 314.504 287.47 311.53C284.039 308.556 227.21 301.306 227.21 301.306C227.766 296.571 229.441 292.112 231.03 287.616C233.884 279.643 236.55 271.408 236.601 262.866C236.652 254.325 233.662 245.344 227.159 240.451C221.81 236.433 214.923 235.688 208.405 235.854C203.663 236 195.469 234.778 191.137 236.773C187.71 238.397 185.723 244.52 185.082 248.132Z" fill="#FBBEBE"/>
<path d="M199.396 180.658C198.564 181.596 197.919 182.707 197.5 183.923C190.594 200.672 186.514 218.61 185.453 236.898C185.472 237.79 185.281 238.672 184.898 239.463C184.52 239.99 184.1 240.479 183.642 240.925C183.242 241.435 182.94 242.024 182.752 242.659C182.564 243.294 182.495 243.963 182.547 244.627C182.599 245.291 182.773 245.938 183.057 246.53C183.342 247.122 183.732 247.648 184.206 248.077C184.283 248.148 184.363 248.215 184.445 248.28C185.854 245.426 189.229 244.493 192.229 244.245C206.591 243.022 220.621 250.212 235.026 249.669C234.01 245.89 232.548 242.259 231.719 238.435C228.054 221.453 237.196 202.964 231.591 186.608C230.472 183.335 228.601 180.117 225.653 178.683C224.433 178.153 223.156 177.789 221.851 177.6C218.211 176.892 210.965 173.867 207.446 175.081C206.147 175.532 205.635 176.846 204.558 177.64C202.922 178.764 200.752 179.178 199.396 180.658Z" fill="#6C63FF"/>
<path d="M398.862 236.773C394.531 234.778 386.337 236 381.595 235.854C375.076 235.688 368.19 236.433 362.841 240.451C356.338 245.344 353.348 254.325 353.399 262.866C353.45 271.408 356.116 279.643 358.97 287.616C360.559 292.112 362.234 296.571 362.79 301.306C362.79 301.306 305.961 308.556 302.53 311.53C299.1 314.504 297.566 320.452 300.197 324.13C302.828 327.808 384.923 331.5 395.731 329.039C396.636 329.064 397.513 328.701 398.17 328.031C398.826 327.36 399.209 326.437 399.234 325.463C400.326 318.605 401.206 311.737 401.795 304.814C402.107 301.246 402.334 297.679 402.565 294.102L405.02 256.159C405.294 253.489 405.259 250.793 404.918 248.132C404.277 244.52 402.29 238.397 398.862 236.773Z" fill="#FBBEBE"/>
<path d="M385.442 177.64C384.365 176.846 383.853 175.532 382.554 175.081C379.035 173.867 371.789 176.892 368.149 177.6C366.844 177.789 365.567 178.153 364.347 178.683C361.399 180.117 359.528 183.335 358.409 186.608C352.804 202.964 361.946 221.453 358.281 238.435C357.452 242.259 355.99 245.89 354.974 249.669C369.379 250.212 383.409 243.022 397.771 244.245C400.771 244.493 404.146 245.426 405.555 248.28C405.637 248.216 405.717 248.148 405.794 248.077C406.268 247.647 406.658 247.122 406.943 246.53C407.227 245.938 407.401 245.291 407.453 244.627C407.505 243.963 407.436 243.294 407.248 242.659C407.06 242.024 406.758 241.435 406.358 240.925C405.9 240.479 405.48 239.99 405.102 239.463C404.72 238.672 404.528 237.79 404.547 236.898C403.486 218.61 399.406 200.672 392.5 183.923C392.081 182.707 391.436 181.596 390.604 180.658C389.248 179.178 387.078 178.764 385.442 177.64Z" fill="#6C63FF"/>
<path d="M282.65 330.851C289.723 330.851 295.457 324.681 295.457 317.07C295.457 309.459 289.723 303.289 282.65 303.289C275.577 303.289 269.843 309.459 269.843 317.07C269.843 324.681 275.577 330.851 282.65 330.851Z" fill="#FBBEBE"/>
<path d="M311.009 330.851C318.082 330.851 323.817 324.681 323.817 317.07C323.817 309.459 318.082 303.289 311.009 303.289C303.936 303.289 298.202 309.459 298.202 317.07C298.202 324.681 303.936 330.851 311.009 330.851Z" fill="#FBBEBE"/>
<path d="M390.066 348.124H214.112C212.058 348.122 210.088 347.243 208.636 345.68C207.183 344.117 206.366 341.997 206.364 339.787V224.923C206.366 222.712 207.183 220.593 208.636 219.03C210.088 217.467 212.058 216.588 214.112 216.585H390.066C392.12 216.588 394.09 217.467 395.542 219.03C396.995 220.593 397.812 222.712 397.814 224.923V339.787C397.812 341.997 396.995 344.117 395.542 345.68C394.09 347.243 392.12 348.122 390.066 348.124Z" fill="#3F3D56"/>
<path d="M301.662 287.871C304.493 287.871 306.789 285.402 306.789 282.355C306.789 279.308 304.493 276.838 301.662 276.838C298.831 276.838 296.536 279.308 296.536 282.355C296.536 285.402 298.831 287.871 301.662 287.871Z" fill="white"/>
<path d="M590 324.956H0V344.465H34.8978V349H555.115V344.465H590V324.956Z" fill="#F1F1F1"/>
<path d="M253.069 90.7178C245.444 90.7178 239.263 83.5265 239.263 74.6555V66.6243C239.263 57.7533 245.444 50.562 253.069 50.562L253.069 90.7178Z" fill="#6C63FF"/>
<path d="M341.185 50.5621C348.81 50.5621 354.991 57.7534 354.991 66.6243V74.6555C354.991 83.5265 348.81 90.7178 341.185 90.7178V50.5621Z" fill="#6C63FF"/>
<path d="M348.42 67.8864H346.229C346.229 35.5659 323.629 9.27122 295.849 9.27122C268.07 9.27122 245.469 35.5659 245.469 67.8864H243.279C243.279 34.1606 266.862 6.72275 295.849 6.72275C324.837 6.72276 348.42 34.1606 348.42 67.8864Z" fill="#6C63FF"/>
</g>
<defs>
<clipPath id="clip0_2_136">
<rect width="590" height="349" fill="white"/>
</clipPath>
</defs>
</svg>
