<svg width="33" height="33" viewBox="0 0 33 33" fill="none" xmlns="http://www.w3.org/2000/svg">
<g clip-path="url(#clip0_39_338)">
<path d="M0.324219 2.4217C0.324219 1.1557 1.37622 0.1297 2.67422 0.1297H29.9742C31.2722 0.1297 32.3242 1.1557 32.3242 2.4217V29.8377C32.3242 31.1037 31.2722 32.1297 29.9742 32.1297H2.67422C1.37622 32.1297 0.324219 31.1037 0.324219 29.8377V2.4217ZM10.2102 26.9177V12.4677H5.40822V26.9177H10.2102ZM7.81022 10.4937C9.48422 10.4937 10.5262 9.3857 10.5262 7.9977C10.4962 6.5797 9.48622 5.5017 7.84222 5.5017C6.19822 5.5017 5.12422 6.5817 5.12422 7.9977C5.12422 9.3857 6.16622 10.4937 7.77822 10.4937H7.81022ZM17.6262 26.9177V18.8477C17.6262 18.4157 17.6582 17.9837 17.7862 17.6757C18.1322 16.8137 18.9222 15.9197 20.2502 15.9197C21.9882 15.9197 22.6822 17.2437 22.6822 19.1877V26.9177H27.4842V18.6297C27.4842 14.1897 25.1162 12.1257 21.9562 12.1257C19.4082 12.1257 18.2662 13.5257 17.6262 14.5117V14.5617H17.5942C17.6048 14.545 17.6155 14.5283 17.6262 14.5117V12.4677H12.8262C12.8862 13.8237 12.8262 26.9177 12.8262 26.9177H17.6262Z" fill="#DED6FF"/>
</g>
<defs>
<clipPath id="clip0_39_338">
<rect width="32" height="32" fill="white" transform="translate(0.324219 0.1297)"/>
</clipPath>
</defs>
</svg>
