<svg width="33" height="33" viewBox="0 0 33 33" fill="none" xmlns="http://www.w3.org/2000/svg">
<g clip-path="url(#clip0_39_336)">
<path d="M10.552 30.1297C22.628 30.1297 29.234 20.1237 29.234 11.4617C29.234 11.1817 29.234 10.8977 29.222 10.6177C30.5081 9.68668 31.6181 8.53401 32.5 7.2137C31.2986 7.74341 30.0255 8.09252 28.722 8.2497C30.095 7.42898 31.1234 6.13764 31.616 4.6157C30.3259 5.37995 28.914 5.91645 27.442 6.2017C26.4523 5.14775 25.1428 4.44954 23.7161 4.21522C22.2895 3.9809 20.8254 4.22355 19.5506 4.90558C18.2759 5.58761 17.2616 6.67096 16.6649 7.98782C16.0682 9.30469 15.9223 10.7816 16.25 12.1897C13.6395 12.0588 11.0856 11.3806 8.75406 10.1992C6.42251 9.01774 4.36534 7.35939 2.71597 5.3317C1.87865 6.77787 1.62312 8.48851 2.00126 10.1162C2.37941 11.744 3.36288 13.1668 4.75197 14.0957C3.71105 14.0603 2.69301 13.7808 1.77997 13.2797V13.3697C1.78176 14.8847 2.30658 16.3525 3.26572 17.5252C4.22485 18.6979 5.55946 19.5035 7.04397 19.8057C6.4805 19.9609 5.89843 20.0383 5.31397 20.0357C4.90194 20.037 4.49073 19.9988 4.08597 19.9217C4.50554 21.2258 5.32252 22.366 6.42246 23.1827C7.52241 23.9993 8.85024 24.4514 10.22 24.4757C7.89308 26.3033 5.01877 27.2945 2.05997 27.2897C1.53861 27.2919 1.01762 27.2618 0.499969 27.1997C3.503 29.1142 6.99056 30.1308 10.552 30.1297Z" fill="#DED6FF"/>
</g>
<defs>
<clipPath id="clip0_39_336">
<rect width="32" height="32" fill="white" transform="translate(0.5 0.1297)"/>
</clipPath>
</defs>
</svg>
