<svg width="32" height="40" viewBox="0 0 32 40" fill="none" xmlns="http://www.w3.org/2000/svg">
<path d="M14.7251 0H21.2746V30.0184C17.9198 30.653 15.4502 30.9027 12.778 30.9027C4.77873 30.8943 0.614716 27.3206 0.614716 20.4571C0.614716 13.844 5.0316 9.55216 11.8761 9.55216C12.9382 9.55216 13.7473 9.63576 14.7251 9.88616V0ZM14.9546 15.2958C14.1876 15.0453 13.5555 14.9618 12.7462 14.9618C9.4336 14.9618 7.5202 16.9824 7.5202 20.5236C7.5202 23.9713 9.3494 25.875 12.7042 25.875C13.429 25.875 14.019 25.8341 14.9546 25.7089V15.2958Z" fill="#DED6FF"/>
<path d="M31.9849 10.3581V25.3879C31.9849 30.5639 31.5972 33.053 30.4592 35.199C29.3971 37.2621 27.9979 38.5631 25.1067 40L19.0293 37.1361C21.9205 35.7925 23.3197 34.6052 24.2133 32.7933C25.1488 30.9405 25.4438 28.7945 25.4438 23.1501V10.3582L31.9849 10.3581ZM24.7838 0H31.3333V6.65482H24.7838V0Z" fill="#DED6FF"/>
</svg>
