<svg width="28" height="40" viewBox="0 0 28 40" fill="none" xmlns="http://www.w3.org/2000/svg">
<g clip-path="url(#clip0_2_168)">
<path d="M14.1761 20C14.1761 18.2319 14.8785 16.5362 16.1287 15.2859C17.379 14.0357 19.0747 13.3333 20.8428 13.3333C22.6109 13.3333 24.3066 14.0357 25.5568 15.2859C26.8071 16.5362 27.5094 18.2319 27.5094 20C27.5094 21.7681 26.8071 23.4638 25.5568 24.714C24.3066 25.9643 22.6109 26.6666 20.8428 26.6666C19.0747 26.6666 17.379 25.9643 16.1287 24.714C14.8785 23.4638 14.1761 21.7681 14.1761 20Z" fill="#DED6FF"/>
<path d="M0.842773 33.3334C0.842773 31.5652 1.54515 29.8696 2.79539 28.6193C4.04564 27.3691 5.74133 26.6667 7.50944 26.6667H14.1761V33.3334C14.1761 35.1015 13.4737 36.7972 12.2235 38.0474C10.9732 39.2976 9.27755 40 7.50944 40C5.74133 40 4.04564 39.2976 2.79539 38.0474C1.54515 36.7972 0.842773 35.1015 0.842773 33.3334H0.842773Z" fill="#8970EF"/>
<path d="M14.1761 0V13.3333H20.8428C22.6109 13.3333 24.3066 12.631 25.5568 11.3807C26.8071 10.1305 27.5094 8.43478 27.5094 6.66667C27.5094 4.89856 26.8071 3.20286 25.5568 1.95262C24.3066 0.702379 22.6109 0 20.8428 0L14.1761 0Z" fill="#DED6FF"/>
<path d="M0.842773 6.66667C0.842773 8.43478 1.54515 10.1305 2.79539 11.3807C4.04564 12.631 5.74133 13.3333 7.50944 13.3333H14.1761V0H7.50944C5.74133 0 4.04564 0.702379 2.79539 1.95262C1.54515 3.20286 0.842773 4.89856 0.842773 6.66667H0.842773Z" fill="#8970EF"/>
<path d="M0.842773 20C0.842773 21.7681 1.54515 23.4638 2.79539 24.714C4.04564 25.9643 5.74133 26.6666 7.50944 26.6666H14.1761V13.3333H7.50944C5.74133 13.3333 4.04564 14.0357 2.79539 15.2859C1.54515 16.5362 0.842773 18.2319 0.842773 20Z" fill="#8970EF"/>
</g>
<defs>
<clipPath id="clip0_2_168">
<rect width="26.6667" height="40" fill="white" transform="translate(0.842773)"/>
</clipPath>
</defs>
</svg>
