<svg width="42" height="40" viewBox="0 0 42 40" fill="none" xmlns="http://www.w3.org/2000/svg">
<path d="M21.4908 0C10.1613 0 0.984894 9.17638 0.984894 20.5059C0.984894 29.5797 6.8547 37.2438 15.0058 39.9608C16.0311 40.1403 16.4156 39.5251 16.4156 38.9868C16.4156 38.4998 16.3899 36.8849 16.3899 35.1676C11.2378 36.116 9.90495 33.9116 9.49483 32.7581C9.26414 32.1686 8.26448 30.3487 7.39298 29.8617C6.67527 29.4772 5.64998 28.5288 7.36735 28.5032C8.98219 28.4775 10.1356 29.9898 10.5201 30.605C12.3657 33.7065 15.3134 32.835 16.4925 32.2968C16.6719 30.9639 17.2102 30.0667 17.7997 29.5541C13.2372 29.0414 8.46954 27.2728 8.46954 19.4293C8.46954 17.1993 9.26414 15.3538 10.5714 13.9184C10.3663 13.4057 9.64863 11.3039 10.7765 8.48431C10.7765 8.48431 12.4938 7.94603 16.4156 10.5862C18.056 10.1248 19.799 9.89408 21.542 9.89408C23.285 9.89408 25.028 10.1248 26.6685 10.5862C30.5903 7.9204 32.3076 8.48431 32.3076 8.48431C33.4354 11.3039 32.7177 13.4057 32.5127 13.9184C33.8199 15.3538 34.6145 17.1737 34.6145 19.4293C34.6145 27.2984 29.8213 29.0414 25.2587 29.5541C26.0021 30.1949 26.6429 31.4253 26.6429 33.3477C26.6429 36.0903 26.6172 38.2947 26.6172 38.9868C26.6172 39.5251 27.0017 40.1659 28.027 39.9608C32.098 38.5869 35.6356 35.9707 38.1416 32.4807C40.6476 28.9906 41.9959 24.8025 41.9967 20.5059C41.9967 9.17638 32.8203 0 21.4908 0Z" fill="#DED6FF"/>
</svg>
