<svg width="41" height="40" viewBox="0 0 41 40" fill="none" xmlns="http://www.w3.org/2000/svg">
<path d="M0.157288 0H40.1573V40H0.157288V0Z" fill="#8970EF"/>
<path d="M36.8835 30.4601C36.5907 28.635 35.4006 27.1026 31.8759 25.673C30.6516 25.1102 29.2866 24.7072 28.8797 23.7794C28.7352 23.2395 28.7162 22.9353 28.8075 22.6083C29.0698 21.5475 30.336 21.2167 31.3398 21.5209C31.9862 21.7376 32.5983 22.2358 32.9672 23.0304C34.6934 21.9126 34.6896 21.9201 35.8949 21.1521C35.4539 20.4677 35.2181 20.1521 34.9291 19.8593C33.8911 18.6996 32.4767 18.1027 30.2143 18.1483C29.8227 18.1977 29.4273 18.2509 29.0356 18.3004C27.9064 18.5856 26.8303 19.1787 26.1991 19.9734C24.3056 22.1217 24.8455 25.8821 27.1497 27.4297C29.4196 29.1331 32.7542 29.5209 33.1801 31.1141C33.5945 33.0647 31.7467 33.6958 29.9101 33.4715C28.5565 33.1901 27.8037 32.5019 26.99 31.251C25.4919 32.1179 25.4919 32.1179 23.952 33.0038C24.317 33.8023 24.701 34.1635 25.3132 34.8555C28.2106 37.7947 35.4615 37.6502 36.7619 33.2015C36.8151 33.0494 37.1649 32.0304 36.8835 30.4601ZM21.9025 18.384H18.1611C18.1611 21.616 18.1459 24.8251 18.1459 28.057C18.1459 30.114 18.2524 32 17.9178 32.5779C17.3703 33.7148 15.952 33.5741 15.3056 33.3536C14.6478 33.0304 14.3132 32.5703 13.9254 31.9201C13.8189 31.7338 13.7391 31.5893 13.7124 31.5779C12.6972 32.1977 11.6858 32.8212 10.6706 33.441C11.1763 34.4791 11.9215 35.3802 12.8759 35.9657C14.3018 36.8212 16.2181 37.0836 18.222 36.6235C19.5261 36.2433 20.6516 35.4563 21.2409 34.2585C22.0926 32.6882 21.9101 30.7871 21.9025 28.6844C21.9215 25.2547 21.9025 21.8251 21.9025 18.384Z" fill="#DED6FF"/>
</svg>
