<svg width="42" height="40" viewBox="0 0 42 40" fill="none" xmlns="http://www.w3.org/2000/svg">
<g clip-path="url(#clip0_13_32)">
<path d="M20.905 0.0112915C10.7353 0.0112915 11.3703 4.42149 11.3703 4.42149L11.3816 8.99058H21.0863V10.3623H7.52698C7.52698 10.3623 1.01938 9.62431 1.01938 19.8855C1.01938 30.147 6.69937 29.783 6.69937 29.783H10.0892V25.0213C10.0892 25.0213 9.90643 19.3413 15.6785 19.3413H25.3039C25.3039 19.3413 30.7117 19.4287 30.7117 14.1148V5.32862C30.7117 5.32862 31.5331 0.0112915 20.905 0.0112915ZM15.5538 3.08392C15.7831 3.08371 16.0102 3.12873 16.2222 3.21639C16.4341 3.30406 16.6266 3.43265 16.7888 3.59481C16.9509 3.75697 17.0795 3.94952 17.1672 4.16143C17.2549 4.37335 17.2999 4.60047 17.2997 4.8298C17.2999 5.05913 17.2549 5.28625 17.1672 5.49816C17.0795 5.71008 16.9509 5.90262 16.7888 6.06478C16.6266 6.22694 16.4341 6.35554 16.2222 6.4432C16.0102 6.53087 15.7831 6.57589 15.5538 6.57568C15.3245 6.57589 15.0973 6.53087 14.8854 6.4432C14.6735 6.35554 14.481 6.22694 14.3188 6.06478C14.1566 5.90262 14.0281 5.71008 13.9404 5.49816C13.8527 5.28625 13.8077 5.05913 13.8079 4.8298C13.8077 4.60047 13.8527 4.37335 13.9404 4.16143C14.0281 3.94952 14.1566 3.75697 14.3188 3.59481C14.481 3.43265 14.6735 3.30406 14.8854 3.21639C15.0973 3.12873 15.3245 3.08371 15.5538 3.08392Z" fill="#8970EF"/>
<path d="M21.1938 39.8629C31.3635 39.8629 30.7285 35.4527 30.7285 35.4527L30.7172 30.8838H21.0123V29.512H34.5717C34.5717 29.512 41.0793 30.25 41.0793 19.9885C41.0793 9.72721 35.3993 10.0911 35.3993 10.0911H32.0095V14.8527C32.0095 14.8527 32.1922 20.5327 26.4201 20.5327H16.7947C16.7947 20.5327 11.3869 20.4453 11.3869 25.7594V34.5457C11.3869 34.5457 10.5657 39.8629 21.1936 39.8629H21.1938ZM26.545 36.7906C26.3157 36.7908 26.0886 36.7458 25.8766 36.6581C25.6647 36.5704 25.4722 36.4418 25.31 36.2797C25.1479 36.1175 25.0193 35.925 24.9316 35.7131C24.8439 35.5011 24.7989 35.274 24.7991 35.0447C24.7989 34.8153 24.8439 34.5882 24.9316 34.3763C25.0192 34.1643 25.1478 33.9718 25.31 33.8096C25.4721 33.6474 25.6647 33.5188 25.8766 33.4311C26.0885 33.3435 26.3157 33.2984 26.545 33.2987C26.7743 33.2984 27.0015 33.3435 27.2134 33.4311C27.4253 33.5188 27.6178 33.6474 27.78 33.8095C27.9422 33.9717 28.0707 34.1643 28.1584 34.3762C28.2461 34.5881 28.2911 34.8152 28.2909 35.0445C28.2911 35.2739 28.2461 35.501 28.1584 35.7129C28.0707 35.9248 27.9422 36.1174 27.78 36.2795C27.6178 36.4417 27.4253 36.5703 27.2134 36.6579C27.0015 36.7456 26.7743 36.7908 26.545 36.7906Z" fill="#DED6FF"/>
</g>
<defs>
<clipPath id="clip0_13_32">
<rect width="40.1606" height="40" fill="white" transform="translate(0.996643)"/>
</clipPath>
</defs>
</svg>
